<svg width="246" height="60" viewBox="0 0 246 60" fill="none" xmlns="http://www.w3.org/2000/svg">
<ellipse cx="28.1875" cy="28.1572" rx="28.1719" ry="28.1572" fill="#F8B017"/>
<path d="M11.5273 41.3741C11.5273 41.107 11.5273 40.8703 11.5273 40.6078C11.6183 40.5996 11.7027 40.5854 11.787 40.5852C12.4636 40.5835 13.1402 40.5841 13.8171 40.5841C13.9047 40.5841 13.9926 40.5841 14.0975 40.5841C14.1108 40.519 14.1267 40.4653 14.1313 40.4109C14.137 40.346 14.1333 40.2805 14.1333 40.2152C14.1333 31.8436 14.1333 23.472 14.1328 15.1004C14.1328 14.9866 14.1249 14.873 14.1196 14.7305C13.2495 14.7305 12.4009 14.7305 11.5337 14.7305C11.5337 14.4589 11.5337 14.2171 11.5337 13.9496C11.6367 13.942 11.7362 13.9285 11.8356 13.9285C14.1377 13.9274 16.4398 13.9277 18.7419 13.9277C20.0215 13.9277 21.3014 13.9224 22.5811 13.9294C23.5516 13.9346 24.5232 13.9301 25.4922 13.9742C27.397 14.0611 29.2775 14.3155 31.1046 14.8795C32.2244 15.2251 33.2897 15.688 34.2836 16.3073C35.9592 17.3515 37.1598 18.7869 37.9303 20.5803C38.3885 21.6466 38.6762 22.7587 38.8577 23.9003C39.0152 24.8902 39.0852 25.8872 39.0949 26.8876C39.1119 28.6675 38.9794 30.4339 38.5477 32.169C38.2664 33.2997 37.8596 34.3824 37.2755 35.3978C36.3823 36.9509 35.1236 38.1374 33.5591 39.0236C32.0875 39.8573 30.5113 40.4141 28.8609 40.7819C28.008 40.9719 27.1466 41.1149 26.2781 41.2034C25.5772 41.275 24.8726 41.331 24.1686 41.3469C20.0361 41.4396 15.9025 41.3656 11.7696 41.3876C11.6978 41.3884 11.6261 41.3799 11.5273 41.3741ZM21.9433 40.5841C22.0635 40.5841 22.1363 40.5841 22.2092 40.5841C22.6798 40.5837 23.1506 40.5832 23.6212 40.583C24.2629 40.5828 24.8964 40.5088 25.5194 40.3608C27.2394 39.9521 28.5232 38.9861 29.3456 37.4351C29.7221 36.7251 29.9813 35.9723 30.1794 35.1982C30.4241 34.2418 30.5899 33.2712 30.6714 32.2884C30.7401 31.4584 30.8156 30.6274 30.8344 29.7956C30.8637 28.4916 30.8491 27.1868 30.8509 25.8822C30.8522 24.8963 30.8085 23.9125 30.7184 22.9304C30.6356 22.0279 30.5113 21.1322 30.3101 20.248C30.0908 19.2837 29.785 18.3497 29.3001 17.4779C28.6495 16.3084 27.6923 15.5261 26.383 15.1548C25.4436 14.8885 24.4844 14.7807 23.5147 14.7385C23.0742 14.7194 22.6323 14.7318 22.1911 14.7313C22.1196 14.7313 22.048 14.7387 21.9429 14.7444C21.9433 23.3569 21.9433 31.9546 21.9433 40.5841Z" fill="black"/>
<path d="M44.3535 34.9102C44.8585 34.9134 45.3507 34.9807 45.827 35.1434C46.8828 35.5043 47.5605 36.203 47.7778 37.2987C47.9308 38.0709 47.9151 38.8421 47.6797 39.5966C47.3158 40.7628 46.51 41.4583 45.2992 41.6914C44.682 41.8102 44.0615 41.8148 43.4388 41.7034C42.5032 41.5356 41.7941 41.0527 41.3487 40.2286C40.7342 39.0917 40.6783 37.9113 41.2147 36.7375C41.6795 35.7206 42.497 35.1221 43.6305 34.972C43.8703 34.9406 44.1125 34.9304 44.3535 34.9102Z" fill="black"/>
<path d="M68.167 35.9091V8.80469H75.0303C77.3962 8.80469 79.2376 9.10585 80.5544 9.70817C81.8713 10.2882 82.7976 11.214 83.3333 12.4855C83.8689 13.7348 84.1368 15.3633 84.1368 17.371V27.2089C84.1368 29.2389 83.8689 30.9009 83.3333 32.1948C82.7976 33.4663 81.8713 34.4033 80.5544 35.0056C79.2599 35.6079 77.4408 35.9091 75.0973 35.9091H68.167ZM74.1598 31.7597H75.0973C76.0124 31.7597 76.6708 31.6259 77.0726 31.3582C77.4743 31.0905 77.7198 30.689 77.8091 30.1536C77.9207 29.6182 77.9765 28.9489 77.9765 28.1458V16.3337C77.9765 15.5306 77.9096 14.8837 77.7756 14.3929C77.664 13.9021 77.4074 13.5452 77.0056 13.3221C76.6039 13.099 75.9566 12.9875 75.0638 12.9875H74.1598V31.7597Z" fill="white"/>
<path d="M94.1451 36.2437C92.7389 36.2437 91.5337 35.9983 90.5293 35.5075C89.5249 34.9944 88.7549 34.2583 88.2192 33.299C87.6835 32.3174 87.4157 31.1463 87.4157 29.7855V22.6915C87.4157 21.3084 87.6835 20.1372 88.2192 19.178C88.7549 18.2187 89.5249 17.4937 90.5293 17.0029C91.556 16.4898 92.7613 16.2333 94.1451 16.2333C95.5735 16.2333 96.7565 16.4787 97.6939 16.9695C98.6537 17.4602 99.3679 18.1853 99.8366 19.1445C100.328 20.1038 100.573 21.2861 100.573 22.6915V26.5731H92.8059V30.2874C92.8059 30.7782 92.8617 31.1797 92.9733 31.492C93.0849 31.8044 93.2411 32.0274 93.442 32.1613C93.6429 32.2951 93.8772 32.3621 94.1451 32.3621C94.4129 32.3621 94.6473 32.3063 94.8482 32.1948C95.0713 32.0609 95.2387 31.8601 95.3503 31.5924C95.4843 31.3247 95.5512 30.9567 95.5512 30.4882V28.447H100.573V30.3209C100.573 32.284 100.004 33.7675 98.8657 34.7713C97.7274 35.7529 96.1539 36.2437 94.1451 36.2437ZM92.8059 24.03H95.5512V22.0892C95.5512 21.5761 95.4843 21.1745 95.3503 20.8845C95.2387 20.5945 95.0713 20.3938 94.8482 20.2822C94.6473 20.1707 94.4018 20.1149 94.1116 20.1149C93.8438 20.1149 93.6094 20.1818 93.4085 20.3157C93.23 20.4495 93.0849 20.6838 92.9733 21.0184C92.8617 21.3307 92.8059 21.788 92.8059 22.3903V24.03Z" fill="white"/>
<path d="M104.18 35.9091V8.80469H115.898V12.8536H110.173V19.6799H115.161V23.8627H110.173V35.9091H104.18Z" fill="white"/>
<path d="M118.6 35.9091V16.5679H124.057V35.9091H118.6ZM118.566 13.2886V9.50739H124.057V13.2886H118.566Z" fill="white"/>
<path d="M136.964 35.9091V8.80469H148.682V12.8536H142.957V19.6799H147.945V23.8627H142.957V35.9091H136.964Z" fill="white"/>
<path d="M157.875 36.2437C156.491 36.2437 155.286 36.0094 154.259 35.541C153.255 35.0725 152.473 34.3698 151.915 33.4329C151.38 32.4959 151.112 31.3247 151.112 29.9193V22.5576C151.112 21.1522 151.38 19.9811 151.915 19.0441C152.473 18.1072 153.255 17.4045 154.259 16.936C155.286 16.4675 156.491 16.2333 157.875 16.2333C159.259 16.2333 160.453 16.4675 161.457 16.936C162.484 17.4045 163.276 18.1072 163.834 19.0441C164.392 19.9811 164.671 21.1522 164.671 22.5576V29.9193C164.671 31.3247 164.392 32.4959 163.834 33.4329C163.276 34.3698 162.484 35.0725 161.457 35.541C160.453 36.0094 159.259 36.2437 157.875 36.2437ZM157.908 32.6298C158.265 32.6298 158.544 32.5405 158.745 32.3621C158.946 32.1613 159.08 31.8936 159.147 31.559C159.236 31.202 159.281 30.7782 159.281 30.2874V22.1896C159.281 21.6988 159.236 21.2861 159.147 20.9515C159.08 20.5945 158.946 20.3268 158.745 20.1484C158.544 19.9476 158.265 19.8472 157.908 19.8472C157.551 19.8472 157.272 19.9476 157.071 20.1484C156.87 20.3268 156.725 20.5945 156.636 20.9515C156.547 21.2861 156.502 21.6988 156.502 22.1896V30.2874C156.502 30.7782 156.547 31.202 156.636 31.559C156.725 31.8936 156.87 32.1613 157.071 32.3621C157.272 32.5405 157.551 32.6298 157.908 32.6298Z" fill="white"/>
<path d="M168.099 35.9091V16.5679H173.557V19.7803C174.182 18.6649 174.807 17.8172 175.431 17.2372C176.056 16.6348 176.815 16.3337 177.708 16.3337C177.887 16.3337 178.043 16.3448 178.177 16.3671C178.311 16.3671 178.433 16.3894 178.545 16.4341V21.8549C178.3 21.7434 178.021 21.6542 177.708 21.5872C177.418 21.498 177.105 21.4534 176.771 21.4534C176.146 21.4534 175.565 21.6207 175.03 21.9553C174.494 22.2899 174.003 22.7473 173.557 23.3273V35.9091H168.099Z" fill="white"/>
<path d="M193.801 35.9091V24.8331L188.645 8.80469H194.303L196.881 17.371L199.191 8.80469H204.615L199.559 24.8331V35.9091H193.801Z" fill="white"/>
<path d="M212.834 36.2437C211.45 36.2437 210.245 36.0094 209.218 35.541C208.214 35.0725 207.432 34.3698 206.874 33.4329C206.339 32.4959 206.071 31.3247 206.071 29.9193V22.5576C206.071 21.1522 206.339 19.9811 206.874 19.0441C207.432 18.1072 208.214 17.4045 209.218 16.936C210.245 16.4675 211.45 16.2333 212.834 16.2333C214.218 16.2333 215.412 16.4675 216.416 16.936C217.443 17.4045 218.235 18.1072 218.793 19.0441C219.351 19.9811 219.63 21.1522 219.63 22.5576V29.9193C219.63 31.3247 219.351 32.4959 218.793 33.4329C218.235 34.3698 217.443 35.0725 216.416 35.541C215.412 36.0094 214.218 36.2437 212.834 36.2437ZM212.867 32.6298C213.224 32.6298 213.503 32.5405 213.704 32.3621C213.905 32.1613 214.039 31.8936 214.106 31.559C214.195 31.202 214.24 30.7782 214.24 30.2874V22.1896C214.24 21.6988 214.195 21.2861 214.106 20.9515C214.039 20.5945 213.905 20.3268 213.704 20.1484C213.503 19.9476 213.224 19.8472 212.867 19.8472C212.51 19.8472 212.231 19.9476 212.03 20.1484C211.829 20.3268 211.684 20.5945 211.595 20.9515C211.506 21.2861 211.461 21.6988 211.461 22.1896V30.2874C211.461 30.7782 211.506 31.202 211.595 31.559C211.684 31.8936 211.829 32.1613 212.03 32.3621C212.231 32.5405 212.51 32.6298 212.867 32.6298Z" fill="white"/>
<path d="M226.406 36.2437C225.625 36.2437 224.955 36.0541 224.397 35.6748C223.862 35.2733 223.46 34.7267 223.192 34.0352C222.924 33.3436 222.79 32.574 222.79 31.7263V16.5679H228.248V31.0905C228.248 31.559 228.326 31.9271 228.482 32.1948C228.661 32.4401 228.962 32.5628 229.386 32.5628C229.631 32.5628 229.888 32.5071 230.156 32.3955C230.424 32.2617 230.703 32.1167 230.993 31.9605V16.5679H236.417V35.9091H230.993V34.1356C230.301 34.7825 229.565 35.2956 228.783 35.6748C228.024 36.0541 227.232 36.2437 226.406 36.2437Z" fill="white"/>
<path d="M239.987 35.911V30.7578H245.143V35.911H239.987Z" fill="#F8B017"/>
<path d="M158.943 57.2913C158.057 57.2913 157.416 56.9562 157.021 56.2858C156.637 55.6155 156.446 54.5023 156.446 52.9462V51.0249C156.446 50.1152 156.512 49.3312 156.643 48.6728C156.775 48.0144 157.015 47.5057 157.362 47.1466C157.721 46.7755 158.23 46.59 158.889 46.59C159.296 46.59 159.65 46.6857 159.949 46.8773C160.26 47.0568 160.518 47.2603 160.721 47.4877V42.5859H162.033V57.1297H160.721V56.3936C160.518 56.621 160.266 56.8305 159.967 57.022C159.679 57.2016 159.338 57.2913 158.943 57.2913ZM159.212 56.2499C159.5 56.2499 159.769 56.1841 160.021 56.0524C160.284 55.9208 160.518 55.7592 160.721 55.5676V48.3496C160.542 48.182 160.32 48.0204 160.057 47.8648C159.793 47.6972 159.5 47.6134 159.176 47.6134C158.602 47.6134 158.218 47.8708 158.027 48.3855C157.847 48.8883 157.757 49.6244 157.757 50.594V53.0539C157.757 53.7482 157.793 54.3347 157.865 54.8135C157.949 55.2923 158.093 55.6514 158.296 55.8908C158.512 56.1302 158.817 56.2499 159.212 56.2499Z" fill="#F8B017"/>
<path d="M166.849 57.2913C166.202 57.2913 165.669 57.1657 165.25 56.9143C164.843 56.6509 164.537 56.22 164.334 55.6215C164.142 55.023 164.046 54.227 164.046 53.2334V50.612C164.046 49.5825 164.148 48.7805 164.352 48.206C164.555 47.6194 164.867 47.2064 165.286 46.967C165.705 46.7157 166.232 46.59 166.867 46.59C167.597 46.59 168.154 46.7456 168.538 47.0568C168.921 47.368 169.184 47.8409 169.328 48.4753C169.484 49.0977 169.562 49.8997 169.562 50.8813V51.815H165.358V53.6285C165.358 54.2988 165.406 54.8315 165.502 55.2265C165.609 55.6095 165.771 55.8848 165.987 56.0524C166.214 56.22 166.502 56.3038 166.849 56.3038C167.112 56.3038 167.352 56.2559 167.567 56.1602C167.783 56.0524 167.951 55.8549 168.07 55.5676C168.202 55.2684 168.268 54.8494 168.268 54.3108V53.5925H169.544V54.1671C169.544 55.1128 169.346 55.8729 168.951 56.4474C168.568 57.01 167.867 57.2913 166.849 57.2913ZM165.358 51.0608H168.268V50.199C168.268 49.6484 168.238 49.1815 168.178 48.7985C168.118 48.4035 167.987 48.1042 167.783 47.9007C167.591 47.6852 167.28 47.5775 166.849 47.5775C166.49 47.5775 166.196 47.6553 165.969 47.8109C165.753 47.9665 165.597 48.2478 165.502 48.6548C165.406 49.0499 165.358 49.6184 165.358 50.3606V51.0608Z" fill="#F8B017"/>
<path d="M172.158 57.1297V47.7032H170.829V46.7516H172.158V45.6743C172.158 45.1236 172.206 44.6568 172.302 44.2737C172.41 43.8787 172.607 43.5795 172.895 43.376C173.194 43.1605 173.619 43.0528 174.17 43.0528C174.314 43.0528 174.469 43.0647 174.637 43.0887C174.817 43.1007 174.978 43.1186 175.122 43.1426V44.1301C175.002 44.1062 174.883 44.0882 174.763 44.0762C174.643 44.0643 174.523 44.0583 174.404 44.0583C174.008 44.0583 173.757 44.166 173.649 44.3815C173.541 44.5969 173.487 44.986 173.487 45.5486V46.7516H177.422V57.1297H176.11V47.7032H173.487V57.1297H172.158ZM176.218 45.3151V43.5376H177.44V45.3151H176.218Z" fill="#F8B017"/>
<path d="M180.46 57.1297V47.7032H179.131V46.7516H180.46V45.6743C180.46 45.1595 180.502 44.7047 180.586 44.3096C180.67 43.9146 180.844 43.6034 181.107 43.376C181.383 43.1485 181.802 43.0348 182.365 43.0348C182.556 43.0348 182.736 43.0468 182.904 43.0707C183.083 43.0827 183.257 43.1126 183.425 43.1605V44.1301C183.317 44.1062 183.191 44.0882 183.047 44.0762C182.916 44.0523 182.796 44.0403 182.688 44.0403C182.293 44.0403 182.041 44.166 181.933 44.4174C181.838 44.6568 181.79 45.0338 181.79 45.5486V46.7516H183.46V47.7032H181.79V57.1297H180.46Z" fill="#F8B017"/>
<path d="M187.369 57.2913C186.663 57.2913 186.106 57.1417 185.698 56.8425C185.303 56.5312 185.022 56.0883 184.854 55.5138C184.686 54.9272 184.603 54.215 184.603 53.3771V50.5042C184.603 49.6663 184.686 48.9601 184.854 48.3855C185.022 47.799 185.303 47.3561 185.698 47.0568C186.106 46.7456 186.663 46.59 187.369 46.59C188.1 46.59 188.663 46.7456 189.058 47.0568C189.453 47.3561 189.735 47.799 189.902 48.3855C190.07 48.9601 190.154 49.6663 190.154 50.5042V53.3771C190.154 54.215 190.07 54.9272 189.902 55.5138C189.735 56.0883 189.453 56.5312 189.058 56.8425C188.663 57.1417 188.1 57.2913 187.369 57.2913ZM187.369 56.3038C187.824 56.3038 188.154 56.1841 188.357 55.9447C188.573 55.7053 188.705 55.3701 188.752 54.9392C188.8 54.4963 188.824 53.9995 188.824 53.4489V50.4324C188.824 49.8698 188.8 49.379 188.752 48.9601C188.705 48.5291 188.573 48.194 188.357 47.9546C188.154 47.7032 187.824 47.5775 187.369 47.5775C186.914 47.5775 186.585 47.7032 186.381 47.9546C186.178 48.194 186.052 48.5291 186.004 48.9601C185.956 49.379 185.932 49.8698 185.932 50.4324V53.4489C185.932 53.9995 185.956 54.4963 186.004 54.9392C186.052 55.3701 186.178 55.7053 186.381 55.9447C186.585 56.1841 186.914 56.3038 187.369 56.3038Z" fill="#F8B017"/>
<path d="M192.245 57.1297V46.7516H193.574V48.17C193.91 47.6194 194.293 47.2304 194.724 47.0029C195.155 46.7635 195.569 46.6438 195.964 46.6438C196 46.6438 196.036 46.6438 196.072 46.6438C196.107 46.6438 196.149 46.6498 196.197 46.6618V48.0623C196.113 48.0264 196.012 48.0025 195.892 47.9905C195.772 47.9665 195.658 47.9546 195.551 47.9546C195.143 47.9546 194.772 48.0503 194.437 48.2419C194.113 48.4334 193.826 48.7386 193.574 49.1576V57.1297H192.245Z" fill="#F8B017"/>
<path d="M197.381 59.7153V58.6919C197.98 58.6919 198.429 58.644 198.728 58.5482C199.039 58.4644 199.243 58.3387 199.339 58.1712C199.447 58.0155 199.501 57.83 199.501 57.6145C199.501 57.423 199.465 57.1716 199.393 56.8604C199.321 56.5492 199.243 56.226 199.159 55.8908L197.021 46.7516H198.333L200.129 55.5856L201.872 46.7516H203.201L200.686 57.8659C200.59 58.3088 200.417 58.6619 200.165 58.9253C199.926 59.2006 199.602 59.3981 199.195 59.5178C198.8 59.6495 198.309 59.7153 197.722 59.7153H197.381Z" fill="#F8B017"/>
<path d="M207.259 57.2913C206.552 57.2913 205.995 57.1417 205.588 56.8425C205.193 56.5312 204.911 56.0883 204.744 55.5138C204.576 54.9272 204.492 54.215 204.492 53.3771V50.5042C204.492 49.6663 204.576 48.9601 204.744 48.3855C204.911 47.799 205.193 47.3561 205.588 47.0568C205.995 46.7456 206.552 46.59 207.259 46.59C207.989 46.59 208.552 46.7456 208.947 47.0568C209.343 47.3561 209.624 47.799 209.792 48.3855C209.959 48.9601 210.043 49.6663 210.043 50.5042V53.3771C210.043 54.215 209.959 54.9272 209.792 55.5138C209.624 56.0883 209.343 56.5312 208.947 56.8425C208.552 57.1417 207.989 57.2913 207.259 57.2913ZM207.259 56.3038C207.714 56.3038 208.043 56.1841 208.247 55.9447C208.462 55.7053 208.594 55.3701 208.642 54.9392C208.69 54.4963 208.714 53.9995 208.714 53.4489V50.4324C208.714 49.8698 208.69 49.379 208.642 48.9601C208.594 48.5291 208.462 48.194 208.247 47.9546C208.043 47.7032 207.714 47.5775 207.259 47.5775C206.804 47.5775 206.474 47.7032 206.271 47.9546C206.067 48.194 205.941 48.5291 205.893 48.9601C205.846 49.379 205.822 49.8698 205.822 50.4324V53.4489C205.822 53.9995 205.846 54.4963 205.893 54.9392C205.941 55.3701 206.067 55.7053 206.271 55.9447C206.474 56.1841 206.804 56.3038 207.259 56.3038Z" fill="#F8B017"/>
<path d="M213.572 57.2913C213.224 57.2913 212.931 57.2016 212.692 57.022C212.452 56.8425 212.266 56.5911 212.135 56.2679C212.015 55.9447 211.955 55.5497 211.955 55.0828V46.7516H213.284V54.7956C213.284 55.3342 213.362 55.7113 213.518 55.9267C213.686 56.1422 213.937 56.2499 214.272 56.2499C214.584 56.2499 214.895 56.1542 215.207 55.9626C215.53 55.7711 215.829 55.5257 216.105 55.2265V46.7516H217.416V57.1297H216.105V55.9806C215.769 56.3637 215.386 56.6809 214.955 56.9322C214.524 57.1716 214.063 57.2913 213.572 57.2913Z" fill="#F8B017"/>
<path d="M219.7 57.1297V55.1547H221.083V57.1297H219.7Z" fill="#F8B017"/>
<path d="M224.58 57.2913C224.233 57.2913 223.939 57.2016 223.7 57.022C223.46 56.8425 223.275 56.5911 223.143 56.2679C223.023 55.9447 222.963 55.5497 222.963 55.0828V46.7516H224.293V54.7956C224.293 55.3342 224.37 55.7113 224.526 55.9267C224.694 56.1422 224.945 56.2499 225.281 56.2499C225.592 56.2499 225.903 56.1542 226.215 55.9626C226.538 55.7711 226.838 55.5257 227.113 55.2265V46.7516H228.424V57.1297H227.113V55.9806C226.778 56.3637 226.394 56.6809 225.963 56.9322C225.532 57.1716 225.071 57.2913 224.58 57.2913Z" fill="#F8B017"/>
<path d="M230.654 57.1297V42.5859H231.965V51.815L235.433 46.7516H236.816L234.193 50.7556L236.708 57.1297H235.379L233.187 51.4918L231.965 53.1975V57.1297H230.654Z" fill="#F8B017"/>
</svg>
