<svg width="1353" height="112" viewBox="0 0 1353 112" fill="none" xmlns="http://www.w3.org/2000/svg">
<path d="M-55.224 110H-56.224V111H-55.224V110ZM-55.224 2.864V1.864H-56.224V2.864H-55.224ZM42.84 4.88L42.6756 5.86639V5.86639L42.84 4.88ZM63 10.784L62.5657 11.6848L62.5723 11.6879L62.5789 11.691L63 10.784ZM76.824 19.28L76.1876 20.0514L76.1934 20.0562L76.1993 20.0609L76.824 19.28ZM89.928 41.456L88.9524 41.6755L88.9557 41.69L88.9593 41.7044L89.928 41.456ZM89.64 72.272L88.6711 72.0246L89.64 72.272ZM82.728 86.24L81.9165 85.6557L81.9143 85.6588L82.728 86.24ZM69.624 98.48L70.1541 99.3281L70.1648 99.3212L69.624 98.48ZM47.736 106.832L47.9594 107.807L47.969 107.804L47.736 106.832ZM-21.672 28.208V27.208H-22.672V28.208H-21.672ZM-21.672 84.224H-22.672V85.224H-21.672V84.224ZM-54.224 110V2.864H-56.224V110H-54.224ZM-55.224 3.864H15.768V1.864H-55.224V3.864ZM15.768 3.864C25.7085 3.864 34.6763 4.53317 42.6756 5.86639L43.0044 3.8936C34.8757 2.53883 25.7955 1.864 15.768 1.864V3.864ZM42.6756 5.86639C50.678 7.20012 57.3001 9.146 62.5657 11.6848L63.4343 9.88323C57.9479 7.238 51.13 5.24787 43.0044 3.8936L42.6756 5.86639ZM62.5789 11.691C67.8919 14.1577 72.4244 16.9467 76.1876 20.0514L77.4604 18.5086C73.5436 15.2773 68.8602 12.4023 63.4211 9.87699L62.5789 11.691ZM76.1993 20.0609C79.9413 23.0545 82.7733 26.4512 84.718 30.2479L86.498 29.3361C84.4107 25.2608 81.3867 21.6495 77.4487 18.4991L76.1993 20.0609ZM84.718 30.2479C86.7003 34.1181 88.109 37.927 88.9524 41.6755L90.9036 41.2365C90.019 37.305 88.5478 33.3379 86.498 29.3361L84.718 30.2479ZM88.9593 41.7044C89.8963 45.3583 90.368 49.3061 90.368 53.552H92.368C92.368 49.1579 91.8797 45.0416 90.8967 41.2076L88.9593 41.7044ZM90.368 53.552V57.872H92.368V53.552H90.368ZM90.368 57.872C90.368 62.8842 89.8006 67.6005 88.6711 72.0246L90.6089 72.5194C91.7834 67.9195 92.368 63.0358 92.368 57.872H90.368ZM88.6711 72.0246C87.5571 76.3876 85.3183 80.9309 81.9165 85.6557L83.5396 86.8243C87.0497 81.9491 89.4189 77.1804 90.6089 72.5194L88.6711 72.0246ZM81.9143 85.6588C78.6354 90.2492 74.3639 94.2441 69.0833 97.6388L70.1648 99.3212C75.6362 95.8039 80.1006 91.6388 83.5417 86.8212L81.9143 85.6588ZM69.094 97.632C63.843 100.914 56.6606 103.666 47.503 105.86L47.969 107.804C57.2434 105.582 64.653 102.766 70.154 99.328L69.094 97.632ZM47.5126 105.857C38.3864 107.949 27.8559 109 15.912 109V111C27.9681 111 38.6536 109.939 47.9594 107.807L47.5126 105.857ZM15.912 109H-55.224V111H15.912V109ZM-22.672 28.208V84.224H-20.672V28.208H-22.672ZM-21.672 85.224H13.176V83.224H-21.672V85.224ZM13.176 85.224C27.6029 85.224 38.5951 82.9138 46.0083 78.1535C53.4974 73.3445 57.232 66.0996 57.232 56.576H55.232C55.232 65.4843 51.7907 72.0635 44.9277 76.4705C37.9889 80.9262 27.4531 83.224 13.176 83.224V85.224ZM57.232 56.576V55.712H55.232V56.576H57.232ZM57.232 55.712C57.232 46.234 53.4954 39.0252 46.0063 34.2413C38.5936 29.506 27.6023 27.208 13.176 27.208V29.208C27.4537 29.208 37.9904 31.4939 44.9297 35.9267C51.7926 40.3108 55.232 46.854 55.232 55.712H57.232ZM13.176 27.208H-21.672V29.208H13.176V27.208ZM101.995 2.864V1.864H100.995V2.864H101.995ZM214.891 2.864H215.891V1.864H214.891V2.864ZM214.891 27.2V28.2H215.891V27.2H214.891ZM135.115 27.2V26.2H134.115V27.2H135.115ZM135.115 43.04H134.115V44.04H135.115V43.04ZM213.019 43.04H214.019V42.04H213.019V43.04ZM213.019 67.52V68.52H214.019V67.52H213.019ZM135.115 67.52V66.52H134.115V67.52H135.115ZM135.115 85.088H134.115V86.088H135.115V85.088ZM216.331 85.088H217.331V84.088H216.331V85.088ZM216.331 110V111H217.331V110H216.331ZM101.995 110H100.995V111H101.995V110ZM101.995 3.864H214.891V1.864H101.995V3.864ZM213.891 2.864V27.2H215.891V2.864H213.891ZM214.891 26.2H135.115V28.2H214.891V26.2ZM134.115 27.2V43.04H136.115V27.2H134.115ZM135.115 44.04H213.019V42.04H135.115V44.04ZM212.019 43.04V67.52H214.019V43.04H212.019ZM213.019 66.52H135.115V68.52H213.019V66.52ZM134.115 67.52V85.088H136.115V67.52H134.115ZM135.115 86.088H216.331V84.088H135.115V86.088ZM215.331 85.088V110H217.331V85.088H215.331ZM216.331 109H101.995V111H216.331V109ZM102.995 110V2.864H100.995V110H102.995ZM229.401 2.864V1.864H228.401V2.864H229.401ZM340.137 2.864H341.137V1.864H340.137V2.864ZM340.137 27.2V28.2H341.137V27.2H340.137ZM262.809 27.2V26.2H261.809V27.2H262.809ZM262.809 43.04H261.809V44.04H262.809V43.04ZM338.265 43.04H339.265V42.04H338.265V43.04ZM338.265 67.52V68.52H339.265V67.52H338.265ZM262.809 67.52V66.52H261.809V67.52H262.809ZM262.809 110V111H263.809V110H262.809ZM229.401 110H228.401V111H229.401V110ZM229.401 3.864H340.137V1.864H229.401V3.864ZM339.137 2.864V27.2H341.137V2.864H339.137ZM340.137 26.2H262.809V28.2H340.137V26.2ZM261.809 27.2V43.04H263.809V27.2H261.809ZM262.809 44.04H338.265V42.04H262.809V44.04ZM337.265 43.04V67.52H339.265V43.04H337.265ZM338.265 66.52H262.809V68.52H338.265V66.52ZM261.809 67.52V110H263.809V67.52H261.809ZM262.809 109H229.401V111H262.809V109ZM230.401 110V2.864H228.401V110H230.401ZM386.984 2.864H387.984V1.864H386.984V2.864ZM386.984 110V111H387.984V110H386.984ZM353.432 110H352.432V111H353.432V110ZM353.432 2.864V1.864H352.432V2.864H353.432ZM385.984 2.864V110H387.984V2.864H385.984ZM386.984 109H353.432V111H386.984V109ZM354.432 110V2.864H352.432V110H354.432ZM353.432 3.864H386.984V1.864H353.432V3.864ZM446.807 2.864V1.864H445.807V2.864H446.807ZM557.543 2.864H558.543V1.864H557.543V2.864ZM557.543 27.2V28.2H558.543V27.2H557.543ZM480.215 27.2V26.2H479.215V27.2H480.215ZM480.215 43.04H479.215V44.04H480.215V43.04ZM555.671 43.04H556.671V42.04H555.671V43.04ZM555.671 67.52V68.52H556.671V67.52H555.671ZM480.215 67.52V66.52H479.215V67.52H480.215ZM480.215 110V111H481.215V110H480.215ZM446.807 110H445.807V111H446.807V110ZM446.807 3.864H557.543V1.864H446.807V3.864ZM556.543 2.864V27.2H558.543V2.864H556.543ZM557.543 26.2H480.215V28.2H557.543V26.2ZM479.215 27.2V43.04H481.215V27.2H479.215ZM480.215 44.04H555.671V42.04H480.215V44.04ZM554.671 43.04V67.52H556.671V43.04H554.671ZM555.671 66.52H480.215V68.52H555.671V66.52ZM479.215 67.52V110H481.215V67.52H479.215ZM480.215 109H446.807V111H480.215V109ZM447.807 110V2.864H445.807V110H447.807ZM673.51 3.008L673.336 3.99273L673.348 3.99472L673.51 3.008ZM692.518 8.048L692.135 8.97161L692.141 8.97409L692.518 8.048ZM714.982 25.04L714.158 25.6065L714.164 25.6151L714.17 25.6236L714.982 25.04ZM720.31 35.12L719.372 35.4657V35.4657L720.31 35.12ZM722.903 44.912L721.911 45.0442V45.0442L722.903 44.912ZM722.903 67.232L721.911 67.0998V67.0998L722.903 67.232ZM720.31 77.168L721.249 77.5137L721.252 77.5059L720.31 77.168ZM715.127 87.392L715.951 87.9585L715.955 87.9526L715.959 87.9467L715.127 87.392ZM706.055 96.752L706.679 97.5329L706.682 97.531L706.055 96.752ZM692.662 104.672L693.046 105.596L693.053 105.593L693.061 105.589L692.662 104.672ZM673.51 109.856L673.338 108.871L673.336 108.871L673.51 109.856ZM616.487 109.856L616.314 110.841L616.487 109.856ZM597.334 104.672L596.936 105.589L596.944 105.593L596.951 105.596L597.334 104.672ZM583.799 96.752L583.162 97.5234L583.173 97.532L583.183 97.5403L583.799 96.752ZM574.727 87.392L573.894 87.9467L573.904 87.9613L573.914 87.9756L574.727 87.392ZM569.542 77.168L568.594 77.4842L568.599 77.499L568.604 77.5137L569.542 77.168ZM567.094 45.056L568.085 45.1926L568.086 45.1882L567.094 45.056ZM569.542 35.264L568.601 34.9261L568.599 34.9332L568.596 34.9403L569.542 35.264ZM574.727 25.04L573.914 24.4564L573.908 24.4649L573.902 24.4735L574.727 25.04ZM597.19 8.048L596.813 7.12189L596.807 7.12441L597.19 8.048ZM616.487 3.008L616.647 3.99512L616.659 3.99303L616.487 3.008ZM687.335 47.36L686.369 47.62L686.372 47.6296L687.335 47.36ZM683.447 39.872L682.643 40.4672L682.648 40.4745L682.654 40.4817L683.447 39.872ZM675.958 33.248L676.469 32.3881L675.958 33.248ZM663.286 28.784L663.056 29.7572L663.067 29.7596L663.077 29.7618L663.286 28.784ZM603.383 66.512L602.446 66.8631L602.451 66.8758L602.456 66.8884L603.383 66.512ZM609.575 75.728L608.845 76.4119L608.851 76.4179L608.856 76.4238L609.575 75.728ZM623.11 83.072L622.822 84.0294L623.11 83.072ZM666.742 83.216L667.021 84.1764L667.031 84.1734L666.742 83.216ZM680.279 76.016L680.986 76.7231L680.991 76.7175L680.997 76.7118L680.279 76.016ZM686.471 66.8L685.544 66.4236L685.539 66.4362L685.534 66.4489L686.471 66.8ZM641.974 1.992H648.167V-0.00800323H641.974V1.992ZM648.167 1.992C657.432 1.992 665.82 2.66071 673.336 3.99265L673.685 2.02334C666.033 0.667278 657.525 -0.00800323 648.167 -0.00800323V1.992ZM673.348 3.99472C680.884 5.23475 687.14 6.89807 692.135 8.97159L692.902 7.12441C687.721 4.97393 681.305 3.27725 673.673 2.02127L673.348 3.99472ZM692.141 8.97409C697.248 11.0547 701.674 13.6005 705.43 16.6049L706.679 15.0431C702.755 11.9034 698.157 9.26525 692.896 7.12191L692.141 8.97409ZM705.43 16.6049C709.216 19.6339 712.117 22.6364 714.158 25.6065L715.807 24.4735C713.625 21.2996 710.573 18.1581 706.679 15.0431L705.43 16.6049ZM714.17 25.6236C716.324 28.6204 718.058 31.9 719.372 35.4657L721.249 34.7743C719.875 31.044 718.057 27.6036 715.794 24.4564L714.17 25.6236ZM719.372 35.4657C720.699 39.0663 721.54 42.2568 721.911 45.0442L723.894 44.7798C723.497 41.8072 722.61 38.4697 721.249 34.7743L719.372 35.4657ZM721.911 45.0442C722.289 47.8766 722.479 50.8563 722.479 53.984H724.479C724.479 50.7757 724.284 47.7074 723.894 44.7798L721.911 45.0442ZM722.479 53.984V58.304H724.479V53.984H722.479ZM722.479 58.304C722.479 61.3343 722.289 64.2661 721.911 67.0998L723.894 67.3642C724.284 64.4379 724.479 61.4177 724.479 58.304H722.479ZM721.911 67.0998C721.539 69.8894 720.698 73.1302 719.369 76.8301L721.252 77.5059C722.612 73.7178 723.498 70.3346 723.894 67.3642L721.911 67.0998ZM719.372 76.8223C718.055 80.3983 716.362 83.7359 714.294 86.8373L715.959 87.9467C718.115 84.7121 719.878 81.2337 721.249 77.5137L719.372 76.8223ZM714.302 86.8255C712.261 89.7948 709.313 92.8458 705.427 95.973L706.682 97.531C710.668 94.3222 713.768 91.1332 715.951 87.9585L714.302 86.8255ZM705.43 95.9711C701.667 98.9813 697.281 101.577 692.264 103.755L693.061 105.589C698.22 103.351 702.762 100.667 706.679 97.5329L705.43 95.9711ZM692.279 103.748C687.281 105.823 680.973 107.535 673.338 108.871L673.683 110.841C681.408 109.489 687.869 107.745 693.046 105.596L692.279 103.748ZM673.336 108.871C665.82 110.203 657.432 110.872 648.167 110.872V112.872C657.525 112.872 666.033 112.197 673.685 110.841L673.336 108.871ZM648.167 110.872H641.974V112.872H648.167V110.872ZM641.974 110.872C632.71 110.872 624.272 110.203 616.659 108.871L616.314 110.841C624.061 112.197 632.615 112.872 641.974 112.872V110.872ZM616.659 108.871C609.024 107.535 602.716 105.823 597.718 103.748L596.951 105.596C602.128 107.745 608.589 109.489 616.314 110.841L616.659 108.871ZM597.733 103.755C592.714 101.577 588.276 98.9783 584.414 95.9637L583.183 97.5403C587.193 100.67 591.779 103.351 596.936 105.589L597.733 103.755ZM584.435 95.9806C580.642 92.8512 577.683 89.7925 575.539 86.8084L573.914 87.9756C576.186 91.1355 579.275 94.3168 583.162 97.5234L584.435 95.9806ZM575.559 86.8373C573.491 83.7359 571.798 80.3983 570.481 76.8223L568.604 77.5137C569.975 81.2337 571.738 84.7121 573.894 87.9467L575.559 86.8373ZM570.491 76.8518C569.257 73.1479 568.459 69.8996 568.086 67.0998L566.103 67.3642C566.498 70.3244 567.332 73.7001 568.594 77.4842L570.491 76.8518ZM568.086 67.0998C567.708 64.2661 567.518 61.3343 567.518 58.304H565.518C565.518 61.4177 565.713 64.4379 566.103 67.3642L568.086 67.0998ZM567.518 58.304V53.984H565.518V58.304H567.518ZM567.518 53.984C567.518 50.856 567.708 47.9261 568.085 45.1926L566.104 44.9194C565.713 47.7539 565.518 50.7759 565.518 53.984H567.518ZM568.086 45.1882C568.459 42.3905 569.255 39.1923 570.489 35.5877L568.596 34.9403C567.333 38.6317 566.498 41.9615 566.103 44.9238L568.086 45.1882ZM570.484 35.6019C571.801 31.9334 573.49 28.6031 575.551 25.6065L573.902 24.4735C571.739 27.6209 569.972 31.1066 568.601 34.9261L570.484 35.6019ZM575.539 25.6236C577.68 22.6439 580.634 19.636 584.423 16.6049L583.174 15.0431C579.283 18.156 576.189 21.2921 573.914 24.4564L575.539 25.6236ZM584.423 16.6049C588.182 13.5981 592.562 11.0518 597.574 8.97159L596.807 7.12441C591.643 9.26815 587.095 11.9059 583.174 15.0431L584.423 16.6049ZM597.568 8.97409C602.661 6.89912 609.015 5.23527 616.647 3.99505L616.326 2.02094C608.598 3.27672 602.088 4.97288 596.813 7.12191L597.568 8.97409ZM616.659 3.99303C624.272 2.66068 632.71 1.992 641.974 1.992V-0.00800323C632.615 -0.00800323 624.061 0.667309 616.314 2.02296L616.659 3.99303ZM689.343 54.992C689.343 52.22 688.996 49.5847 688.297 47.0904L686.372 47.6296C687.017 49.9353 687.343 52.388 687.343 54.992H689.343ZM688.3 47.1C687.587 44.4528 686.222 41.8403 684.239 39.2623L682.654 40.4817C684.511 42.8957 685.738 45.2752 686.369 47.62L688.3 47.1ZM684.25 39.2768C682.243 36.567 679.643 34.2727 676.469 32.3881L675.448 34.1078C678.418 35.8713 680.81 37.993 682.643 40.4672L684.25 39.2768ZM676.469 32.3881C673.268 30.4873 668.927 28.97 663.496 27.8062L663.077 29.7618C668.398 30.9019 672.505 32.3607 675.448 34.1078L676.469 32.3881ZM663.517 27.8108C658.144 26.5409 651.968 25.912 644.998 25.912V27.912C651.853 27.912 657.869 28.5311 663.056 29.7572L663.517 27.8108ZM644.998 25.912C630.474 25.912 619.409 28.2585 611.947 33.0927C604.41 37.9754 600.654 45.3283 600.654 54.992H602.654C602.654 45.9357 606.123 39.2486 613.034 34.7713C620.02 30.2455 630.626 27.912 644.998 27.912V25.912ZM600.654 54.992V56.72H602.654V54.992H600.654ZM600.654 56.72C600.654 60.2894 601.25 63.6729 602.446 66.8631L604.319 66.1609C603.211 63.2071 602.654 60.0626 602.654 56.72H600.654ZM602.456 66.8884C603.761 70.1002 605.903 73.2735 608.845 76.4119L610.304 75.0441C607.486 72.0385 605.5 69.0678 604.309 66.1356L602.456 66.8884ZM608.856 76.4238C611.994 79.6628 616.683 82.178 622.822 84.0294L623.399 82.1146C617.442 80.318 613.107 77.9372 610.293 75.0322L608.856 76.4238ZM622.822 84.0294C628.99 85.8896 636.389 86.808 644.998 86.808V84.808C636.52 84.808 629.327 83.9024 623.399 82.1146L622.822 84.0294ZM644.998 86.808C653.604 86.808 660.952 85.9385 667.021 84.1763L666.464 82.2557C660.629 83.9495 653.481 84.808 644.998 84.808V86.808ZM667.031 84.1734C673.164 82.3237 677.849 79.8598 680.986 76.7231L679.571 75.3089C676.756 78.1242 672.417 80.4603 666.454 82.2586L667.031 84.1734ZM680.997 76.7118C684.041 73.5697 686.194 70.3845 687.407 67.1511L685.534 66.4489C684.443 69.3595 682.468 72.3183 679.56 75.3202L680.997 76.7118ZM687.397 67.1764C688.696 63.9798 689.343 60.5875 689.343 57.008H687.343C687.343 60.3405 686.741 63.4762 685.544 66.4236L687.397 67.1764ZM689.343 57.008V54.992H687.343V57.008H689.343ZM768.219 27.2V26.2H767.219V27.2H768.219ZM768.219 48.224H767.219V49.224H768.219V48.224ZM829.131 45.344L828.49 44.5758L828.482 44.5825L828.474 44.5894L829.131 45.344ZM829.275 30.08L828.618 30.8346V30.8346L829.275 30.08ZM768.219 71.984V70.984H767.219V71.984H768.219ZM768.219 110V111H769.219V110H768.219ZM734.667 110H733.667V111H734.667V110ZM734.667 2.864V1.864H733.667V2.864H734.667ZM865.563 42.176L866.469 42.5989L866.474 42.5876L865.563 42.176ZM860.091 49.232L860.707 50.0195L860.711 50.016L860.091 49.232ZM853.755 53.408L854.202 54.3024L854.21 54.2982L854.219 54.2938L853.755 53.408ZM847.707 55.856L847.403 54.9031L844.093 55.9563L847.457 56.8243L847.707 55.856ZM862.251 64.496L861.502 65.1594L861.511 65.1687L862.251 64.496ZM870.027 109.28H871.027V109.044L870.921 108.833L870.027 109.28ZM870.027 110V111H871.027V110H870.027ZM835.899 110L835.112 110.618L835.413 111H835.899V110ZM829.275 76.448L828.612 77.1966L829.275 76.448ZM767.219 27.2V48.224H769.219V27.2H767.219ZM768.219 49.224H819.051V47.224H768.219V49.224ZM819.051 49.224C823.679 49.224 827.321 48.2432 829.787 46.0986L828.474 44.5894C826.525 46.2848 823.447 47.224 819.051 47.224V49.224ZM829.771 46.1122C832.317 43.9903 833.587 41.1576 833.587 37.712H831.587C831.587 40.6024 830.552 42.8577 828.49 44.5758L829.771 46.1122ZM833.587 37.712V37.568H831.587V37.712H833.587ZM833.587 37.568C833.587 34.223 832.369 31.4458 829.931 29.3254L828.618 30.8346C830.596 32.5541 831.587 34.769 831.587 37.568H833.587ZM829.931 29.3254C827.461 27.1781 823.768 26.2 819.051 26.2V28.2C823.549 28.2 826.672 29.1419 828.618 30.8346L829.931 29.3254ZM819.051 26.2H768.219V28.2H819.051V26.2ZM767.219 71.984V110H769.219V71.984H767.219ZM768.219 109H734.667V111H768.219V109ZM735.667 110V2.864H733.667V110H735.667ZM734.667 3.864H821.067V1.864H734.667V3.864ZM821.067 3.864C836.504 3.864 847.916 6.17582 855.438 10.6704C862.878 15.1163 866.579 21.7327 866.579 30.656H868.579C868.579 21.0513 864.527 13.7717 856.464 8.95357C848.482 4.18418 836.638 1.864 821.067 1.864V3.864ZM866.579 30.656V32.384H868.579V30.656H866.579ZM866.579 32.384C866.579 35.8067 865.932 38.9288 864.651 41.7644L866.474 42.5876C867.881 39.4712 868.579 36.0653 868.579 32.384H866.579ZM864.656 41.7531C863.373 44.5039 861.642 46.7282 859.47 48.448L860.711 50.016C863.147 48.0878 865.065 45.6081 866.469 42.5989L864.656 41.7531ZM859.474 48.4445C857.304 50.1434 855.242 51.4998 853.291 52.5222L854.219 54.2938C856.299 53.2042 858.462 51.7766 860.707 50.0195L859.474 48.4445ZM853.307 52.5136C851.435 53.4496 849.468 54.2463 847.403 54.9031L848.01 56.8089C850.17 56.1217 852.234 55.2864 854.202 54.3024L853.307 52.5136ZM847.457 56.8243C853.234 58.3151 857.902 61.0976 861.502 65.1593L862.999 63.8327C859.111 59.4464 854.083 56.4688 847.956 54.8877L847.457 56.8243ZM861.511 65.1687C865.162 69.185 867.011 74.2629 867.011 80.48H869.011C869.011 73.8331 867.019 68.255 862.991 63.8233L861.511 65.1687ZM867.011 80.48V96.176H869.011V80.48H867.011ZM867.011 96.176C867.011 102.253 867.678 106.82 869.132 109.727L870.921 108.833C869.687 106.364 869.011 102.195 869.011 96.176H867.011ZM869.027 109.28V110H871.027V109.28H869.027ZM870.027 109H835.899V111H870.027V109ZM836.685 109.382C835.844 108.311 835.315 106.343 835.315 103.232H833.315C833.315 106.457 833.842 109.001 835.112 110.618L836.685 109.382ZM835.315 103.232V90.848H833.315V103.232H835.315ZM835.315 90.848C835.315 84.0758 833.597 78.9408 829.938 75.6994L828.612 77.1966C831.672 79.9072 833.315 84.3722 833.315 90.848H835.315ZM829.938 75.6994C826.295 72.473 820.22 70.984 811.995 70.984V72.984C820.089 72.984 825.534 74.471 828.612 77.1966L829.938 75.6994ZM811.995 70.984H768.219V72.984H811.995V70.984ZM970.587 110H969.587V111H970.587V110ZM970.587 68.528H971.587V68.153L971.34 67.8704L970.587 68.528ZM913.275 2.864V1.864H911.075L912.522 3.52157L913.275 2.864ZM954.891 2.864L955.656 2.21943L955.356 1.864H954.891V2.864ZM988.155 42.32L987.391 42.9646L988.148 43.8637L988.914 42.971L988.155 42.32ZM1021.99 2.864V1.864H1021.54L1021.24 2.21298L1021.99 2.864ZM1059.87 2.864L1060.63 3.51106L1062.03 1.864H1059.87V2.864ZM1004.14 68.528L1003.38 67.8809L1003.14 68.1609V68.528H1004.14ZM1004.14 110V111H1005.14V110H1004.14ZM971.587 110V68.528H969.587V110H971.587ZM971.34 67.8704L914.028 2.20643L912.522 3.52157L969.834 69.1856L971.34 67.8704ZM913.275 3.864H954.891V1.864H913.275V3.864ZM954.126 3.50856L987.391 42.9646L988.92 41.6754L955.656 2.21943L954.126 3.50856ZM988.914 42.971L1022.75 3.51502L1021.24 2.21298L987.396 41.669L988.914 42.971ZM1021.99 3.864H1059.87V1.864H1021.99V3.864ZM1059.1 2.21693L1003.38 67.8809L1004.9 69.1751L1060.63 3.51106L1059.1 2.21693ZM1003.14 68.528V110H1005.14V68.528H1003.14ZM1004.14 109H970.587V111H1004.14V109ZM1155.15 3.008L1154.98 3.99273L1154.99 3.99472L1155.15 3.008ZM1174.16 8.048L1173.78 8.97161L1173.78 8.97409L1174.16 8.048ZM1196.62 25.04L1195.8 25.6065L1195.81 25.6151L1195.81 25.6236L1196.62 25.04ZM1201.95 35.12L1201.01 35.4657V35.4657L1201.95 35.12ZM1204.54 44.912L1203.55 45.0442V45.0442L1204.54 44.912ZM1204.54 67.232L1203.55 67.0998V67.0998L1204.54 67.232ZM1201.95 77.168L1202.89 77.5137L1202.89 77.5059L1201.95 77.168ZM1196.77 87.392L1197.59 87.9585L1197.6 87.9526L1197.6 87.9467L1196.77 87.392ZM1187.7 96.752L1188.32 97.5329L1188.32 97.531L1187.7 96.752ZM1174.3 104.672L1174.69 105.596L1174.69 105.593L1174.7 105.589L1174.3 104.672ZM1155.15 109.856L1154.98 108.871L1154.98 108.871L1155.15 109.856ZM1098.13 109.856L1097.95 110.841L1098.13 109.856ZM1078.98 104.672L1078.58 105.589L1078.58 105.593L1078.59 105.596L1078.98 104.672ZM1065.44 96.752L1064.8 97.5234L1064.81 97.532L1064.82 97.5403L1065.44 96.752ZM1056.37 87.392L1055.54 87.9467L1055.54 87.9613L1055.56 87.9756L1056.37 87.392ZM1051.18 77.168L1050.23 77.4842L1050.24 77.499L1050.24 77.5137L1051.18 77.168ZM1048.74 45.056L1049.73 45.1926L1049.73 45.1882L1048.74 45.056ZM1051.18 35.264L1050.24 34.9261L1050.24 34.9332L1050.24 34.9403L1051.18 35.264ZM1056.37 25.04L1055.56 24.4564L1055.55 24.4649L1055.54 24.4735L1056.37 25.04ZM1078.83 8.048L1078.45 7.12189L1078.45 7.12441L1078.83 8.048ZM1098.13 3.008L1098.29 3.99512L1098.3 3.99303L1098.13 3.008ZM1168.98 47.36L1168.01 47.62L1168.01 47.6296L1168.98 47.36ZM1165.09 39.872L1164.28 40.4672L1164.29 40.4745L1164.29 40.4817L1165.09 39.872ZM1157.6 33.248L1158.11 32.3881L1157.6 33.248ZM1144.93 28.784L1144.7 29.7572L1144.71 29.7596L1144.72 29.7618L1144.93 28.784ZM1085.02 66.512L1084.09 66.8631L1084.09 66.8758L1084.1 66.8884L1085.02 66.512ZM1091.22 75.728L1090.49 76.4119L1090.49 76.4179L1090.5 76.4238L1091.22 75.728ZM1104.75 83.072L1104.46 84.0294L1104.75 83.072ZM1148.38 83.216L1148.66 84.1764L1148.67 84.1734L1148.38 83.216ZM1161.92 76.016L1162.63 76.7231L1162.63 76.7175L1162.64 76.7118L1161.92 76.016ZM1168.11 66.8L1167.18 66.4236L1167.18 66.4362L1167.17 66.4489L1168.11 66.8ZM1123.62 1.992H1129.81V-0.00800323H1123.62V1.992ZM1129.81 1.992C1139.07 1.992 1147.46 2.66071 1154.98 3.99265L1155.33 2.02334C1147.67 0.667278 1139.17 -0.00800323 1129.81 -0.00800323V1.992ZM1154.99 3.99472C1162.52 5.23475 1168.78 6.89807 1173.78 8.97159L1174.54 7.12441C1169.36 4.97393 1162.95 3.27725 1155.31 2.02127L1154.99 3.99472ZM1173.78 8.97409C1178.89 11.0547 1183.32 13.6005 1187.07 16.6049L1188.32 15.0431C1184.4 11.9034 1179.8 9.26525 1174.54 7.12191L1173.78 8.97409ZM1187.07 16.6049C1190.86 19.6339 1193.76 22.6364 1195.8 25.6065L1197.45 24.4735C1195.27 21.2996 1192.21 18.1581 1188.32 15.0431L1187.07 16.6049ZM1195.81 25.6236C1197.96 28.6204 1199.7 31.9 1201.01 35.4657L1202.89 34.7743C1201.52 31.044 1199.7 27.6036 1197.44 24.4564L1195.81 25.6236ZM1201.01 35.4657C1202.34 39.0663 1203.18 42.2568 1203.55 45.0442L1205.53 44.7798C1205.14 41.8072 1204.25 38.4697 1202.89 34.7743L1201.01 35.4657ZM1203.55 45.0442C1203.93 47.8766 1204.12 50.8563 1204.12 53.984H1206.12C1206.12 50.7757 1205.92 47.7074 1205.53 44.7798L1203.55 45.0442ZM1204.12 53.984V58.304H1206.12V53.984H1204.12ZM1204.12 58.304C1204.12 61.3343 1203.93 64.2661 1203.55 67.0998L1205.53 67.3642C1205.92 64.4379 1206.12 61.4177 1206.12 58.304H1204.12ZM1203.55 67.0998C1203.18 69.8894 1202.34 73.1302 1201.01 76.8301L1202.89 77.5059C1204.25 73.7178 1205.14 70.3346 1205.53 67.3642L1203.55 67.0998ZM1201.01 76.8223C1199.7 80.3983 1198 83.7359 1195.94 86.8373L1197.6 87.9467C1199.76 84.7121 1201.52 81.2337 1202.89 77.5137L1201.01 76.8223ZM1195.94 86.8255C1193.9 89.7948 1190.95 92.8458 1187.07 95.973L1188.32 97.531C1192.31 94.3222 1195.41 91.1332 1197.59 87.9585L1195.94 86.8255ZM1187.07 95.9711C1183.31 98.9813 1178.92 101.577 1173.91 103.755L1174.7 105.589C1179.86 103.351 1184.4 100.667 1188.32 97.5329L1187.07 95.9711ZM1173.92 103.748C1168.92 105.823 1162.61 107.535 1154.98 108.871L1155.32 110.841C1163.05 109.489 1169.51 107.745 1174.69 105.596L1173.92 103.748ZM1154.98 108.871C1147.46 110.203 1139.07 110.872 1129.81 110.872V112.872C1139.17 112.872 1147.67 112.197 1155.33 110.841L1154.98 108.871ZM1129.81 110.872H1123.62V112.872H1129.81V110.872ZM1123.62 110.872C1114.35 110.872 1105.91 110.203 1098.3 108.871L1097.95 110.841C1105.7 112.197 1114.26 112.872 1123.62 112.872V110.872ZM1098.3 108.871C1090.66 107.535 1084.36 105.823 1079.36 103.748L1078.59 105.596C1083.77 107.745 1090.23 109.489 1097.95 110.841L1098.3 108.871ZM1079.37 103.755C1074.35 101.577 1069.92 98.9783 1066.05 95.9637L1064.82 97.5403C1068.83 100.67 1073.42 103.351 1078.58 105.589L1079.37 103.755ZM1066.08 95.9806C1062.28 92.8512 1059.32 89.7925 1057.18 86.8084L1055.56 87.9756C1057.83 91.1355 1060.92 94.3168 1064.8 97.5234L1066.08 95.9806ZM1057.2 86.8373C1055.13 83.7359 1053.44 80.3983 1052.12 76.8223L1050.24 77.5137C1051.62 81.2337 1053.38 84.7121 1055.54 87.9467L1057.2 86.8373ZM1052.13 76.8518C1050.9 73.1479 1050.1 69.8996 1049.73 67.0998L1047.74 67.3642C1048.14 70.3244 1048.97 73.7001 1050.23 77.4842L1052.13 76.8518ZM1049.73 67.0998C1049.35 64.2661 1049.16 61.3343 1049.16 58.304H1047.16C1047.16 61.4177 1047.35 64.4379 1047.74 67.3642L1049.73 67.0998ZM1049.16 58.304V53.984H1047.16V58.304H1049.16ZM1049.16 53.984C1049.16 50.856 1049.35 47.9261 1049.73 45.1926L1047.74 44.9194C1047.35 47.7539 1047.16 50.7759 1047.16 53.984H1049.16ZM1049.73 45.1882C1050.1 42.3905 1050.9 39.1923 1052.13 35.5877L1050.24 34.9403C1048.97 38.6317 1048.14 41.9615 1047.74 44.9238L1049.73 45.1882ZM1052.12 35.6019C1053.44 31.9334 1055.13 28.6031 1057.19 25.6065L1055.54 24.4735C1053.38 27.6209 1051.61 31.1066 1050.24 34.9261L1052.12 35.6019ZM1057.18 25.6236C1059.32 22.6439 1062.27 19.636 1066.06 16.6049L1064.81 15.0431C1060.92 18.156 1057.83 21.2921 1055.56 24.4564L1057.18 25.6236ZM1066.06 16.6049C1069.82 13.5981 1074.2 11.0518 1079.21 8.97159L1078.45 7.12441C1073.28 9.26815 1068.74 11.9059 1064.81 15.0431L1066.06 16.6049ZM1079.21 8.97409C1084.3 6.89912 1090.66 5.23527 1098.29 3.99505L1097.97 2.02094C1090.24 3.27672 1083.73 4.97288 1078.45 7.12191L1079.21 8.97409ZM1098.3 3.99303C1105.91 2.66068 1114.35 1.992 1123.62 1.992V-0.00800323C1114.26 -0.00800323 1105.7 0.667309 1097.95 2.02296L1098.3 3.99303ZM1170.98 54.992C1170.98 52.22 1170.64 49.5847 1169.94 47.0904L1168.01 47.6296C1168.66 49.9353 1168.98 52.388 1168.98 54.992H1170.98ZM1169.94 47.1C1169.23 44.4528 1167.86 41.8403 1165.88 39.2623L1164.29 40.4817C1166.15 42.8957 1167.38 45.2752 1168.01 47.62L1169.94 47.1ZM1165.89 39.2768C1163.88 36.567 1161.28 34.2727 1158.11 32.3881L1157.09 34.1078C1160.06 35.8713 1162.45 37.993 1164.28 40.4672L1165.89 39.2768ZM1158.11 32.3881C1154.91 30.4873 1150.57 28.97 1145.14 27.8062L1144.72 29.7618C1150.04 30.9019 1154.15 32.3607 1157.09 34.1078L1158.11 32.3881ZM1145.16 27.8108C1139.78 26.5409 1133.61 25.912 1126.64 25.912V27.912C1133.49 27.912 1139.51 28.5311 1144.7 29.7572L1145.16 27.8108ZM1126.64 25.912C1112.12 25.912 1101.05 28.2585 1093.59 33.0927C1086.05 37.9754 1082.3 45.3283 1082.3 54.992H1084.3C1084.3 45.9357 1087.76 39.2486 1094.67 34.7713C1101.66 30.2455 1112.27 27.912 1126.64 27.912V25.912ZM1082.3 54.992V56.72H1084.3V54.992H1082.3ZM1082.3 56.72C1082.3 60.2894 1082.89 63.6729 1084.09 66.8631L1085.96 66.1609C1084.85 63.2071 1084.3 60.0626 1084.3 56.72H1082.3ZM1084.1 66.8884C1085.4 70.1002 1087.54 73.2735 1090.49 76.4119L1091.94 75.0441C1089.13 72.0385 1087.14 69.0678 1085.95 66.1356L1084.1 66.8884ZM1090.5 76.4238C1093.63 79.6628 1098.32 82.178 1104.46 84.0294L1105.04 82.1146C1099.08 80.318 1094.75 77.9372 1091.93 75.0322L1090.5 76.4238ZM1104.46 84.0294C1110.63 85.8896 1118.03 86.808 1126.64 86.808V84.808C1118.16 84.808 1110.97 83.9024 1105.04 82.1146L1104.46 84.0294ZM1126.64 86.808C1135.24 86.808 1142.59 85.9385 1148.66 84.1763L1148.1 82.2557C1142.27 83.9495 1135.12 84.808 1126.64 84.808V86.808ZM1148.67 84.1734C1154.81 82.3237 1159.49 79.8598 1162.63 76.7231L1161.21 75.3089C1158.4 78.1242 1154.06 80.4603 1148.09 82.2586L1148.67 84.1734ZM1162.64 76.7118C1165.68 73.5697 1167.83 70.3845 1169.05 67.1511L1167.17 66.4489C1166.08 69.3595 1164.11 72.3183 1161.2 75.3202L1162.64 76.7118ZM1169.04 67.1764C1170.34 63.9798 1170.98 60.5875 1170.98 57.008H1168.98C1168.98 60.3405 1168.38 63.4762 1167.18 66.4236L1169.04 67.1764ZM1170.98 57.008V54.992H1168.98V57.008H1170.98ZM1259.94 109.568L1259.72 110.545L1259.73 110.546L1259.74 110.548L1259.94 109.568ZM1243.38 103.952L1243.83 103.061L1243.38 103.952ZM1231.43 95.6L1232.11 94.873L1231.43 95.6ZM1223.22 85.664L1224.08 85.1495L1223.22 85.664ZM1218.18 74.864L1217.23 75.1731L1217.23 75.1838L1217.24 75.1944L1218.18 74.864ZM1215.59 64.352L1214.59 64.4723L1214.6 64.4871L1214.6 64.5018L1215.59 64.352ZM1215.01 2.864V1.864H1214.01V2.864H1215.01ZM1248.71 2.864H1249.71V1.864H1248.71V2.864ZM1250.15 63.632L1249.19 63.9067L1249.19 63.9234L1249.2 63.9398L1250.15 63.632ZM1255.33 73.424L1254.53 74.0164L1254.53 74.0222L1254.53 74.0279L1255.33 73.424ZM1266.28 81.056L1265.91 81.987L1265.92 81.9912L1265.93 81.9953L1266.28 81.056ZM1301.56 81.056L1301.91 81.9908L1301.92 81.987L1301.56 81.056ZM1312.5 73.424L1311.7 72.8165L1311.7 72.8201L1312.5 73.424ZM1317.68 63.632L1316.73 63.3322L1316.73 63.341L1316.72 63.3498L1317.68 63.632ZM1319.27 2.864V1.864H1318.27V2.864H1319.27ZM1352.82 2.864H1353.82V1.864H1352.82V2.864ZM1351.24 68.672L1350.26 68.4486L1350.26 68.4562L1350.26 68.4639L1351.24 68.672ZM1345.33 83.504L1344.46 83.0197L1344.45 83.0251L1345.33 83.504ZM1333.96 97.472L1333.3 96.7127L1333.3 96.7194L1333.96 97.472ZM1314.8 107.552L1314.49 106.602L1314.49 106.603L1314.8 107.552ZM1287.01 110.584H1281.83V112.584H1287.01V110.584ZM1281.83 110.584C1273.91 110.584 1266.69 109.917 1260.14 108.588L1259.74 110.548C1266.44 111.907 1273.8 112.584 1281.83 112.584V110.584ZM1260.15 108.591C1253.69 107.164 1248.25 105.317 1243.83 103.061L1242.92 104.843C1247.53 107.195 1253.14 109.092 1259.72 110.545L1260.15 108.591ZM1243.83 103.061C1239.4 100.798 1235.5 98.0676 1232.11 94.873L1230.74 96.327C1234.27 99.6604 1238.33 102.498 1242.92 104.843L1243.83 103.061ZM1232.11 94.873C1228.71 91.6589 1226.04 88.4166 1224.08 85.1495L1222.36 86.1785C1224.43 89.6314 1227.23 93.0131 1230.74 96.327L1232.11 94.873ZM1224.08 85.1495C1222.1 81.85 1220.45 78.3119 1219.12 74.5336L1217.24 75.1944C1218.6 79.0961 1220.31 82.758 1222.36 86.1785L1224.08 85.1495ZM1219.13 74.5549C1217.9 70.7542 1217.05 67.3044 1216.58 64.2022L1214.6 64.5018C1215.09 67.7356 1215.97 71.2938 1217.23 75.1731L1219.13 74.5549ZM1216.58 64.2317C1216.2 61.1033 1216.01 57.9755 1216.01 54.848H1214.01C1214.01 58.0565 1214.21 61.2647 1214.59 64.4723L1216.58 64.2317ZM1216.01 54.848V2.864H1214.01V54.848H1216.01ZM1215.01 3.864H1248.71V1.864H1215.01V3.864ZM1247.71 2.864V52.832H1249.71V2.864H1247.71ZM1247.71 52.832C1247.71 56.7558 1248.2 60.449 1249.19 63.9067L1251.11 63.3573C1250.18 60.095 1249.71 56.5882 1249.71 52.832H1247.71ZM1249.2 63.9398C1250.29 67.3224 1252.07 70.6812 1254.53 74.0164L1256.14 72.8316C1253.79 69.6388 1252.12 66.4696 1251.1 63.3242L1249.2 63.9398ZM1254.53 74.0279C1257.08 77.3828 1260.9 80.0209 1265.91 81.987L1266.64 80.125C1261.86 78.2511 1258.39 75.8012 1256.13 72.8201L1254.53 74.0279ZM1265.93 81.9953C1271.06 83.8695 1277.14 84.792 1284.13 84.792V82.792C1277.3 82.792 1271.47 81.8905 1266.62 80.1167L1265.93 81.9953ZM1284.13 84.792C1291.03 84.792 1296.97 83.8695 1301.91 81.9908L1301.2 80.1212C1296.54 81.8905 1290.86 82.792 1284.13 82.792V84.792ZM1301.92 81.987C1306.93 80.0209 1310.75 77.3828 1313.3 74.0279L1311.7 72.8201C1309.44 75.8012 1305.97 78.2511 1301.19 80.125L1301.92 81.987ZM1313.29 74.0314C1315.85 70.6897 1317.64 67.3174 1318.64 63.9142L1316.72 63.3498C1315.8 66.4746 1314.14 69.6303 1311.7 72.8166L1313.29 74.0314ZM1318.64 63.9318C1319.73 60.4665 1320.27 56.7646 1320.27 52.832H1318.27C1318.27 56.5794 1317.75 60.0775 1316.73 63.3322L1318.64 63.9318ZM1320.27 52.832V2.864H1318.27V52.832H1320.27ZM1319.27 3.864H1352.82V1.864H1319.27V3.864ZM1351.82 2.864V54.848H1353.82V2.864H1351.82ZM1351.82 54.848C1351.82 59.3789 1351.3 63.912 1350.26 68.4486L1352.21 68.8954C1353.28 64.216 1353.82 59.5331 1353.82 54.848H1351.82ZM1350.26 68.4639C1349.32 72.8532 1347.4 77.7033 1344.46 83.0197L1346.21 83.9883C1349.22 78.5527 1351.23 73.5148 1352.21 68.8801L1350.26 68.4639ZM1344.45 83.0251C1341.63 88.1955 1337.92 92.7572 1333.3 96.7127L1334.61 98.2313C1339.4 94.1227 1343.27 89.3725 1346.21 83.9828L1344.45 83.0251ZM1333.3 96.7194C1328.82 100.635 1322.57 103.94 1314.49 106.602L1315.12 108.502C1323.36 105.788 1329.87 102.373 1334.61 98.2246L1333.3 96.7194ZM1314.49 106.603C1306.55 109.251 1297.39 110.584 1287.01 110.584V112.584C1297.56 112.584 1306.93 111.229 1315.12 108.501L1314.49 106.603Z" fill="#252F3F"/>
</svg>
