<svg width="125" height="84" viewBox="0 0 125 84" fill="none" xmlns="http://www.w3.org/2000/svg">
<path d="M44.1812 83.9866H14.8243C6.63885 83.9866 0 77.425 0 69.3169C0 65.2557 1.64877 61.5846 4.34808 58.9398C7.0328 56.2804 10.7389 54.6328 14.8243 54.6328H24.0312C26.3365 66.99 33.8362 77.5261 44.1812 83.9866Z" fill="url(#paint0_linear)"/>
<path d="M125 69.3157C125 73.3625 123.351 77.0336 120.652 79.6929C117.982 82.3522 114.261 83.9998 110.176 83.9998H91.8496C102.165 77.5683 109.65 67.0611 112 54.7617C119.324 55.6289 125 61.8147 125 69.3157Z" fill="url(#paint1_linear)"/>
<path d="M110.658 44.3414C110.658 61.6848 100.59 76.7158 85.9406 84H45.8449C31.181 76.7158 21.1279 61.6848 21.1279 44.3414C21.1279 20.9711 39.3665 1.83551 62.5076 0.130076C63.6165 0.0433586 64.7546 0 65.8927 0C90.6097 0 110.658 19.8582 110.658 44.3414Z" fill="url(#paint2_linear)"/>
<path d="M103.887 44.3414C103.887 61.6848 93.8193 76.7302 79.1554 84H39.0743C24.4105 76.7158 14.3428 61.6848 14.3428 44.3414C14.3428 19.8582 34.3906 0 59.1076 0C60.2457 0 61.3838 0.0433586 62.5072 0.130076C85.6484 1.84997 103.887 20.9855 103.887 44.3414Z" fill="url(#paint3_linear)"/>
<path d="M59.1084 77.4402C77.562 77.4402 92.5215 62.6221 92.5215 44.3431C92.5215 26.0641 77.562 11.2461 59.1084 11.2461C40.6549 11.2461 25.6953 26.0641 25.6953 44.3431C25.6953 62.6221 40.6549 77.4402 59.1084 77.4402Z" fill="url(#paint4_linear)"/>
<path d="M84.8613 23.2564C79.0979 18.5303 71.6857 15.6976 63.617 15.6976C45.1595 15.6976 30.1893 30.5117 30.1893 48.7946C30.1893 56.8015 33.0491 64.1435 37.8203 69.8524C30.4082 63.7967 25.6953 54.6047 25.6953 44.3431C25.6953 26.0603 40.651 11.2461 59.123 11.2461C69.4825 11.2461 78.7477 15.9144 84.8613 23.2564Z" fill="url(#paint5_linear)"/>
<path d="M61.7928 41.2477V34.267C63.7626 34.6717 66.0826 35.5099 68.2712 36.8251L70.5328 31.9979C68.1836 30.4659 65.032 29.3386 61.8074 29.0061V23.3984L57.649 23.4418V29.0495C52.3234 29.7143 48.9237 32.7928 48.9237 37.2443C48.9237 42.7797 53.4323 44.3695 57.6344 45.5836V53.2147C54.9205 52.7088 51.9148 51.2635 49.5073 49.1534L47.1582 53.8506C49.8867 56.2642 53.6657 57.9697 57.649 58.4177V64.3289H61.8074V58.3888C67.1039 57.724 70.8392 54.6889 70.8392 49.905C70.8538 44.1383 66.0826 42.534 61.7928 41.2477ZM55.0956 36.7529C55.0956 35.4232 56.0586 34.556 57.6344 34.1947V39.8602C56.117 39.1521 55.0956 38.2415 55.0956 36.7529ZM61.7928 53.2002V46.8843C63.5146 47.5925 64.711 48.5464 64.711 50.2085C64.711 51.7405 63.6459 52.7811 61.7928 53.2002Z" fill="url(#paint6_linear)"/>
<path d="M62.9309 29.1651V30.1335C65.6011 30.4081 68.2128 31.2174 70.3723 32.3737L70.5474 32.0123C68.4609 30.6393 65.7616 29.5987 62.9309 29.1651ZM64.2879 48.7198C64.5505 49.1534 64.711 49.6448 64.711 50.2229C64.711 51.4081 64.069 52.3042 62.9163 52.8389V54.3276C64.7694 53.9084 65.8345 52.8678 65.8345 51.3358C65.8199 50.1507 65.2363 49.3413 64.2879 48.7198ZM57.649 23.4418V29.0495C52.3088 29.7143 48.9237 32.7928 48.9237 37.2443C48.9237 39.9036 49.9597 41.6524 51.5209 42.8809C50.6162 41.7536 50.0618 40.3083 50.0618 38.3571C50.0618 33.9057 53.4615 30.8272 58.7871 30.1624V24.5547L61.8074 24.5113V23.3984L57.649 23.4418ZM57.6344 46.3496V53.2002C54.9205 52.6944 51.9148 51.2491 49.5073 49.139L47.1582 53.8362C47.5376 54.1686 47.9461 54.4865 48.3547 54.8045L50.6308 50.2518C53.0383 52.362 56.0295 53.8073 58.7579 54.3131V46.682C58.3932 46.5808 58.0138 46.4796 57.6344 46.3496ZM57.6344 35.6978V39.8458C57.2697 39.6724 56.9195 39.4845 56.6131 39.2966C57.0362 40.0048 57.8095 40.5251 58.7579 40.9587V35.2931C58.3348 35.3943 57.9554 35.5244 57.6344 35.6978Z" fill="url(#paint7_linear)"/>
<defs>
<linearGradient id="paint0_linear" x1="44.1812" y1="54.6328" x2="19.9436" y2="96.3754" gradientUnits="userSpaceOnUse">
<stop stop-color="#BD8727"/>
<stop offset="0.483111" stop-color="#FFD574"/>
<stop offset="0.611179" stop-color="#FECA50"/>
<stop offset="1" stop-color="#BD8727"/>
</linearGradient>
<linearGradient id="paint1_linear" x1="125" y1="54.7617" x2="98.1181" y2="89.6371" gradientUnits="userSpaceOnUse">
<stop stop-color="#BD8727"/>
<stop offset="0.483111" stop-color="#FFD574"/>
<stop offset="0.611179" stop-color="#FECA50"/>
<stop offset="1" stop-color="#BD8727"/>
</linearGradient>
<linearGradient id="paint2_linear" x1="107" y1="28" x2="-31.201" y2="124.228" gradientUnits="userSpaceOnUse">
<stop stop-color="#BD8727"/>
<stop offset="0.483111" stop-color="#FFD574"/>
<stop offset="0.611179" stop-color="#FECA50"/>
<stop offset="1" stop-color="#BD8727"/>
</linearGradient>
<linearGradient id="paint3_linear" x1="103.887" y1="-4.49512e-06" x2="25.5746" y2="95.5223" gradientUnits="userSpaceOnUse">
<stop stop-color="#BD8727"/>
<stop offset="0.483111" stop-color="#FFD574"/>
<stop offset="0.611179" stop-color="#FECA50"/>
<stop offset="1" stop-color="#BD8727"/>
</linearGradient>
<linearGradient id="paint4_linear" x1="77.001" y1="27.5018" x2="47.4492" y2="58.3671" gradientUnits="userSpaceOnUse">
<stop stop-color="#BD8727"/>
<stop offset="0.483111" stop-color="#FFD574"/>
<stop offset="0.611179" stop-color="#FECA50"/>
<stop offset="1" stop-color="#BD8727"/>
</linearGradient>
<linearGradient id="paint5_linear" x1="25.6946" y1="40.5475" x2="84.862" y2="40.5475" gradientUnits="userSpaceOnUse">
<stop stop-color="#A86700"/>
<stop offset="1" stop-color="#BF7600"/>
</linearGradient>
<linearGradient id="paint6_linear" x1="110.5" y1="-10.5007" x2="-24.7333" y2="39.7588" gradientUnits="userSpaceOnUse">
<stop stop-color="#BD8727"/>
<stop offset="0.483111" stop-color="#FFDE93"/>
<stop offset="0.611179" stop-color="#FFDB87"/>
<stop offset="1" stop-color="#BD8727"/>
</linearGradient>
<linearGradient id="paint7_linear" x1="47.1538" y1="39.1022" x2="70.5428" y2="39.1022" gradientUnits="userSpaceOnUse">
<stop stop-color="#A86700"/>
<stop offset="1" stop-color="#BF7600"/>
</linearGradient>
</defs>
</svg>
