<svg width="125" height="87" viewBox="0 0 125 87" fill="none" xmlns="http://www.w3.org/2000/svg">
<g clip-path="url(#clip0)">
<path d="M74.8287 12.4589H32.2457C28.8373 12.4589 26.0742 9.66981 26.0742 6.22945C26.0742 2.7891 28.8373 0 32.2457 0H74.8147C78.223 0 80.9861 2.7891 80.9861 6.22945C81.0002 9.66981 78.237 12.4589 74.8287 12.4589Z" fill="url(#paint0_linear)"/>
<path d="M65.4459 37.205H22.8629C19.4545 37.205 16.6914 34.4159 16.6914 30.9755C16.6914 27.5352 19.4545 24.7461 22.8629 24.7461H65.4319C68.8402 24.7461 71.6033 27.5352 71.6033 30.9755C71.6173 34.4159 68.8542 37.205 65.4459 37.205Z" fill="url(#paint1_linear)"/>
<path d="M69.2043 62.0839H26.6353C23.227 62.0839 20.4639 59.2948 20.4639 55.8545C20.4639 52.4141 23.227 49.625 26.6353 49.625H69.2043C72.6126 49.625 75.3758 52.4141 75.3758 55.8545C75.3758 59.2948 72.6126 62.0839 69.2043 62.0839Z" fill="url(#paint2_linear)"/>
<path d="M10.6458 62.0839H6.17145C2.76313 62.0839 0 59.2948 0 55.8545C0 52.4141 2.76313 49.625 6.17145 49.625H10.6458C14.0541 49.625 16.8172 52.4141 16.8172 55.8545C16.8032 59.2948 14.0541 62.0839 10.6458 62.0839Z" fill="url(#paint3_linear)"/>
<path d="M78.2089 86.9999H21.698C18.2476 86.9999 15.4424 84.1683 15.4424 80.6855C15.4424 77.2027 18.2476 74.3711 21.698 74.3711H78.1949C81.6453 74.3711 84.4505 77.2027 84.4505 80.6855C84.4645 84.1683 81.6593 86.9999 78.2089 86.9999Z" fill="url(#paint4_linear)"/>
<path d="M125 43.5496C125 67.533 105.728 87 81.9682 87C80.8742 87 79.7802 86.9575 78.7142 86.8726C66.8622 85.9807 56.3286 80.2184 49.0912 71.568C49.6663 70.6194 50.0029 69.5151 50.0029 68.3258C50.0029 64.8855 47.2398 62.0964 43.8314 62.0964H43.06C40.7457 57.1411 39.3151 51.6762 39.0205 45.8998V45.8856C39.3431 45.1352 39.5254 44.2999 39.5254 43.4221C39.5254 42.5585 39.3571 41.7374 39.0345 40.987V40.9728C39.3571 35.1964 40.8158 29.7315 43.1722 24.7763H45.4304C47.1416 24.7763 48.6704 24.0825 49.7925 22.9499C50.9146 21.8173 51.6019 20.2599 51.6019 18.5468C51.6019 16.9753 51.0268 15.5312 50.045 14.4269C57.2263 6.39937 67.3531 1.09017 78.7282 0.240702C79.7942 0.155755 80.8882 0.113281 81.9822 0.113281C105.742 0.113281 125 19.5662 125 43.5496Z" fill="url(#paint5_linear)"/>
<path d="M118.492 43.5496C118.492 66.4287 100.959 85.1878 78.7141 86.8584C77.6481 86.9434 76.5541 86.9859 75.446 86.9859C63.6361 86.9859 52.9343 82.1722 45.1498 74.3995C46.328 74.1447 47.3659 73.5501 48.1794 72.7289C48.5301 72.375 48.8387 71.9785 49.0771 71.568C49.6522 70.6194 49.9888 69.5151 49.9888 68.3258C49.9888 64.8855 47.2257 62.0964 43.8173 62.0964H36.5238C34.7145 58.2313 33.4521 54.0547 32.835 49.6658H33.3118C35.023 49.6658 36.5519 48.972 37.6739 47.8394C38.221 47.2872 38.6698 46.6218 38.9784 45.8998V45.8856C39.301 45.1352 39.4833 44.2999 39.4833 43.4221C39.4833 42.5585 39.315 41.7374 38.9924 40.987V40.9728C38.0526 38.7359 35.8506 37.1927 33.3118 37.1927H32.863C33.4942 32.8038 34.7706 28.6272 36.608 24.7763H45.3883C47.0994 24.7763 48.6283 24.0825 49.7504 22.9499C50.8724 21.8173 51.5597 20.2599 51.5597 18.5468C51.5597 16.9753 50.9846 15.5312 50.0028 14.4269C48.9088 13.1668 47.2958 12.3598 45.5145 12.3315C53.2569 4.75706 63.8044 0.113281 75.432 0.113281C76.526 0.113281 77.6201 0.155755 78.7001 0.240702C100.959 1.92549 118.492 20.6705 118.492 43.5496Z" fill="url(#paint6_linear)"/>
<path d="M75.4604 75.9719C93.1996 75.9719 107.58 61.4563 107.58 43.5504C107.58 25.6445 93.1996 11.1289 75.4604 11.1289C57.7213 11.1289 43.3408 25.6445 43.3408 43.5504C43.3408 61.4563 57.7213 75.9719 75.4604 75.9719Z" fill="url(#paint7_linear)"/>
<path d="M100.216 22.8941C94.6761 18.2645 87.5509 15.4895 79.7945 15.4895C62.0515 15.4895 47.6608 30.0013 47.6608 47.911C47.6608 55.7545 50.4099 62.9466 54.9965 68.539C47.8712 62.6069 43.3408 53.6025 43.3408 43.5504C43.3408 25.6407 57.7175 11.1289 75.4745 11.1289C85.4329 11.1289 94.3254 15.7019 100.216 22.8941Z" fill="url(#paint8_linear)"/>
<path d="M78.0267 40.5357V33.6975C79.9203 34.0939 82.1504 34.9151 84.2543 36.2034L86.4283 31.4747C84.1701 29.974 81.1405 28.8697 78.0408 28.544V23.0508L74.0574 23.0791V28.5723C68.9379 29.2236 65.6698 32.2392 65.6698 36.5998C65.6698 42.0223 70.0039 43.5797 74.0434 44.7689V52.2443C71.4345 51.7487 68.5451 50.333 66.2308 48.2659L63.9727 52.8672C66.5955 55.2316 70.2283 56.9022 74.0574 57.3411V63.1317H78.0548V57.3128C83.1463 56.6615 86.7369 53.6884 86.7369 49.0021C86.7509 43.3531 82.1644 41.7816 78.0267 40.5357ZM71.5888 36.1185C71.5888 34.816 72.5145 33.9665 74.0293 33.6125V39.1624C72.5706 38.4687 71.5888 37.5767 71.5888 36.1185ZM78.0267 52.2301V46.0431C79.6818 46.7369 80.832 47.6713 80.832 49.2994C80.832 50.8002 79.8081 51.8195 78.0267 52.2301Z" fill="url(#paint9_linear)"/>
<path d="M79.1211 28.6841V29.6327C81.6879 29.9017 84.1985 30.6946 86.2744 31.8272L86.4427 31.4732C84.451 30.1282 81.8422 29.1089 79.1211 28.6841ZM80.4396 47.8397C80.692 48.2644 80.8463 48.7458 80.8463 49.3121C80.8463 50.4731 80.2292 51.3509 79.1211 51.8747V53.333C80.9024 52.9224 81.9263 51.903 81.9263 50.4023C81.9123 49.2555 81.3513 48.4485 80.4396 47.8397ZM74.0577 23.0776V28.5709C68.9242 29.2221 65.6702 32.2378 65.6702 36.5984C65.6702 39.2034 66.666 40.9165 68.1668 42.1199C67.2972 41.0156 66.7642 39.5998 66.7642 37.6885C66.7642 33.3279 70.0323 30.3123 75.1518 29.661V24.1678L78.0551 24.1253V23.0352L74.0577 23.0776ZM74.0297 45.5178V52.2286C71.4208 51.7331 68.5315 50.3173 66.2172 48.2503L63.959 52.8516C64.3237 53.1772 64.7164 53.4887 65.1091 53.8002L67.2972 49.3404C69.6115 51.4075 72.4868 52.8233 75.1097 53.3188V45.8435C74.759 45.7585 74.3943 45.6452 74.0297 45.5178ZM74.0297 35.0835V39.1468C73.679 38.9769 73.3424 38.7928 73.0479 38.6088C73.4546 39.3025 74.198 39.8122 75.1097 40.2369V34.6871C74.7029 34.7862 74.3382 34.9136 74.0297 35.0835Z" fill="url(#paint10_linear)"/>
</g>
<defs>
<linearGradient id="paint0_linear" x1="80.9862" y1="-6.66718e-07" x2="76.4664" y2="22.7943" gradientUnits="userSpaceOnUse">
<stop stop-color="#BD8727"/>
<stop offset="0.483111" stop-color="#FFD574"/>
<stop offset="0.611179" stop-color="#FECA50"/>
<stop offset="1" stop-color="#BD8727"/>
</linearGradient>
<linearGradient id="paint1_linear" x1="71.6034" y1="24.7461" x2="67.0835" y2="47.5404" gradientUnits="userSpaceOnUse">
<stop stop-color="#BD8727"/>
<stop offset="0.483111" stop-color="#FFD574"/>
<stop offset="0.611179" stop-color="#FECA50"/>
<stop offset="1" stop-color="#BD8727"/>
</linearGradient>
<linearGradient id="paint2_linear" x1="75.3758" y1="49.625" x2="70.8559" y2="72.4193" gradientUnits="userSpaceOnUse">
<stop stop-color="#BD8727"/>
<stop offset="0.483111" stop-color="#FFD574"/>
<stop offset="0.611179" stop-color="#FECA50"/>
<stop offset="1" stop-color="#BD8727"/>
</linearGradient>
<linearGradient id="paint3_linear" x1="16.8172" y1="49.625" x2="6.00932" y2="66.3179" gradientUnits="userSpaceOnUse">
<stop stop-color="#BD8727"/>
<stop offset="0.483111" stop-color="#FFD574"/>
<stop offset="0.611179" stop-color="#FECA50"/>
<stop offset="1" stop-color="#BD8727"/>
</linearGradient>
<linearGradient id="paint4_linear" x1="84.4505" y1="74.3711" x2="80.7057" y2="97.7857" gradientUnits="userSpaceOnUse">
<stop stop-color="#BD8727"/>
<stop offset="0.483111" stop-color="#FFD574"/>
<stop offset="0.611179" stop-color="#FECA50"/>
<stop offset="1" stop-color="#BD8727"/>
</linearGradient>
<linearGradient id="paint5_linear" x1="121.488" y1="29.0755" x2="-17.4958" y2="118.923" gradientUnits="userSpaceOnUse">
<stop stop-color="#BD8727"/>
<stop offset="0.483111" stop-color="#FFD574"/>
<stop offset="0.611179" stop-color="#FECA50"/>
<stop offset="1" stop-color="#BD8727"/>
</linearGradient>
<linearGradient id="paint6_linear" x1="118.492" y1="0.113277" x2="36.4957" y2="92.6237" gradientUnits="userSpaceOnUse">
<stop stop-color="#BD8727"/>
<stop offset="0.483111" stop-color="#FFD574"/>
<stop offset="0.611179" stop-color="#FECA50"/>
<stop offset="1" stop-color="#BD8727"/>
</linearGradient>
<linearGradient id="paint7_linear" x1="92.6603" y1="27.0528" x2="63.6932" y2="56.7423" gradientUnits="userSpaceOnUse">
<stop stop-color="#BD8727"/>
<stop offset="0.483111" stop-color="#FFD574"/>
<stop offset="0.611179" stop-color="#FECA50"/>
<stop offset="1" stop-color="#BD8727"/>
</linearGradient>
<linearGradient id="paint8_linear" x1="43.3339" y1="39.8337" x2="100.211" y2="39.8337" gradientUnits="userSpaceOnUse">
<stop stop-color="#A86700"/>
<stop offset="1" stop-color="#BF7600"/>
</linearGradient>
<linearGradient id="paint9_linear" x1="124.862" y1="-10.1447" x2="-5.71155" y2="37.4935" gradientUnits="userSpaceOnUse">
<stop stop-color="#BD8727"/>
<stop offset="0.483111" stop-color="#FFDE93"/>
<stop offset="0.611179" stop-color="#FFDB87"/>
<stop offset="1" stop-color="#BD8727"/>
</linearGradient>
<linearGradient id="paint10_linear" x1="63.9626" y1="38.4199" x2="86.4462" y2="38.4199" gradientUnits="userSpaceOnUse">
<stop stop-color="#A86700"/>
<stop offset="1" stop-color="#BF7600"/>
</linearGradient>
<clipPath id="clip0">
<rect width="125" height="87" fill="white"/>
</clipPath>
</defs>
</svg>
