<svg width="18" height="18" viewBox="0 0 18 18" fill="none" xmlns="http://www.w3.org/2000/svg">
<path d="M9.06104 1.28115C9.23038 0.906284 9.76962 0.906285 9.93896 1.28115L12.0425 5.93767C12.1124 6.09228 12.2604 6.19843 12.431 6.2162L17.5692 6.75131C17.9829 6.79439 18.1495 7.30043 17.8405 7.57518L14.0024 10.9882C13.875 11.1015 13.8184 11.2733 13.854 11.4389L14.926 16.4261C15.0123 16.8276 14.5761 17.1403 14.2158 16.9353L9.74012 14.3881C9.59151 14.3035 9.40849 14.3035 9.25988 14.3881L4.78423 16.9353C4.42393 17.1403 3.98768 16.8276 4.07398 16.4261L5.14601 11.4389C5.1816 11.2733 5.12504 11.1015 4.99761 10.9882L1.15947 7.57518C0.850494 7.30043 1.01713 6.79439 1.43077 6.75131L6.56897 6.2162C6.73957 6.19843 6.88764 6.09228 6.95748 5.93767L9.06104 1.28115Z" fill="#F8B017"/>
</svg>
