<svg width="12" height="12" viewBox="0 0 12 12" fill="none" xmlns="http://www.w3.org/2000/svg">
<g clip-path="url(#clip0)">
<path d="M4.3517 8.64359C4.24257 9.18009 4.17173 9.43948 3.75761 9.47271C3.65557 9.48091 3.57246 9.55792 3.55655 9.65904C3.5406 9.76012 3.59602 9.85899 3.6906 9.89816C3.71722 9.90916 4.3506 10.168 5.09059 10.168C5.0907 10.168 5.09077 10.168 5.09085 10.168C5.60653 10.168 6.04888 10.043 6.40559 9.79649C6.82831 9.50439 7.11974 9.04726 7.27469 8.43833L5.85067 7.00293C4.64724 7.19771 4.47675 8.02882 4.3517 8.64359Z" fill="#DBA83D"/>
<path d="M11.9149 2.33954C11.8766 2.30092 11.8083 2.25488 11.7006 2.25488C11.5742 2.25488 11.2385 2.25488 9.19971 3.98976C8.25796 4.79111 7.17214 5.78249 6.30847 6.62611L7.6598 7.98818C8.5481 7.06489 9.58433 5.90764 10.4084 4.91442C10.9288 4.28732 11.329 3.76987 11.5978 3.3765C11.9538 2.85547 12.1098 2.53591 11.9149 2.33954Z" fill="#DBA83D"/>
<path d="M6.74114 10.2818C6.28383 10.5978 5.7285 10.758 5.09029 10.758C4.25028 10.758 3.5427 10.4756 3.46418 10.4432C3.11622 10.299 2.91416 9.93841 2.97279 9.56642C3.0302 9.202 3.32215 8.92503 3.68683 8.88542C3.71862 8.7905 3.75377 8.61761 3.77259 8.52517C3.84193 8.18441 3.93684 7.71765 4.22883 7.30221C4.5477 6.84859 5.02834 6.55774 5.65946 6.43588C6.02167 6.0764 6.43494 5.68115 6.86618 5.28003C6.64818 5.23274 6.45325 5.09075 6.3487 4.87599C6.16872 4.50607 6.3257 4.06109 6.69883 3.88307C7.07293 3.7046 7.52164 3.86047 7.70135 4.23095C7.73683 4.30398 7.75876 4.37984 7.76899 4.45601C8.12666 4.13567 8.48185 3.82474 8.81718 3.53939C8.81917 3.5377 8.82106 3.53607 8.82309 3.53437C8.44619 2.81313 7.9057 2.17411 7.24715 1.68483C6.30151 0.982232 5.1755 0.610647 3.99093 0.610352C3.99056 0.610352 3.9903 0.610352 3.99001 0.610352C3.19057 0.610352 2.2188 0.889677 1.45382 1.33946C0.516158 1.89072 -0.000184543 2.62799 4.94768e-08 3.41535C0.000295398 4.36593 0.536426 4.76354 0.967229 5.08299C1.31851 5.34353 1.59595 5.54928 1.5961 6.0002C1.59621 6.45109 1.31891 6.65665 0.96782 6.91692C0.537165 7.2362 0.00114452 7.63359 0.00143987 8.58428C0.00166138 9.37153 0.518336 10.109 1.45625 10.6607C2.22179 11.1111 3.19408 11.391 3.99366 11.3912C3.99422 11.3912 3.9947 11.3912 3.99521 11.3912C5.4463 11.3912 6.8104 10.8311 7.83637 9.81403C8.60564 9.05148 9.11581 8.10042 9.32318 7.06574C8.8081 7.63691 8.28958 8.1915 7.82566 8.66513C7.62888 9.37677 7.26457 9.9201 6.74114 10.2818ZM4.09995 2.84728C4.19217 2.44594 4.59466 2.19541 4.99907 2.28734C5.40292 2.37882 5.65596 2.77769 5.5644 3.17848C5.47214 3.57882 5.06943 3.82939 4.66499 3.73794C4.26081 3.64697 4.00765 3.24763 4.09995 2.84728ZM1.66333 4.21508C1.40471 3.8933 1.45788 3.42498 1.78206 3.16884C2.1062 2.91318 2.57843 2.96561 2.83752 3.2868C3.09558 3.6081 3.04223 4.07641 2.71831 4.33307C2.39487 4.58928 1.92191 4.53631 1.66333 4.21508ZM2.05806 9.12583C1.73369 8.86947 1.68035 8.40116 1.93896 8.07949C2.19739 7.75844 2.6698 7.7058 2.99413 7.96209C3.3182 8.21841 3.37159 8.68676 3.11319 9.00788C2.8548 9.32955 2.38235 9.38216 2.05806 9.12583Z" fill="#DBA83D"/>
</g>
<defs>
<clipPath id="clip0">
<rect width="12" height="12" fill="white"/>
</clipPath>
</defs>
</svg>
