<svg width="185" height="86" viewBox="0 0 185 86" fill="none" xmlns="http://www.w3.org/2000/svg">
<g clip-path="url(#clip0)">
<path d="M36.0708 4L20 20.221H28.3954V79.0028H43.7491V20.221H52.1417L36.0708 4Z" fill="url(#paint0_linear)"/>
<path d="M145.145 18.2182H136.749V69.4159H121.395V18.2182H113L129.071 2L145.145 18.2182Z" fill="url(#paint1_linear)"/>
<path d="M64.7142 23.7227L51.3322 37.2274H58.3241V87.619L71.1071 87.9994V37.2274H78.0991L64.7142 23.7227Z" fill="url(#paint2_linear)"/>
<path d="M96.642 61.0217H90.9916V87.6196H80.6583V61.0217H75.0079L85.8278 50.1055L96.642 61.0217Z" fill="url(#paint3_linear)"/>
<path d="M10.927 38L2 47.0088H6.66319V79.6609H15.1908V47.0088H19.854L10.927 38Z" fill="url(#paint4_linear)"/>
<path d="M155.861 60.3902C138.308 55.5484 120.751 58.6295 103.198 52.2118C104.789 42.9347 106.381 33.5803 107.969 24.1621C125.522 29.0039 143.079 25.9228 160.632 32.3405C159.044 41.6176 157.452 50.972 155.861 60.3902Z" fill="#005E1F"/>
<path d="M153.883 53.224C154.732 48.1604 155.585 43.1169 156.434 38.0903C154.449 37.5258 153.111 35.5703 153.444 33.5845C140.319 30.4831 127.194 31.3601 114.069 28.9375C113.736 30.9367 111.858 32.2572 109.877 31.77C109.028 36.8303 108.176 41.8737 107.327 46.9004C109.311 47.4682 110.649 49.4238 110.316 51.4096C123.441 54.5277 136.566 53.6507 149.691 56.0599C150.021 54.064 151.899 52.7401 153.883 53.224Z" fill="#99C57C"/>
<path d="M139.82 42.8952C139.088 47.3439 134.959 50.6805 130.591 50.3848C126.226 50.0824 123.279 46.1209 124.008 41.6621C124.741 37.2134 128.87 33.8768 133.238 34.1725C137.606 34.4716 140.553 38.4331 139.82 42.8952Z" fill="#005E1F"/>
<path d="M132.166 46.0841C132.076 46.6285 131.986 47.1762 131.899 47.7205C131.436 47.6869 130.974 47.6566 130.511 47.623C130.601 47.0754 130.691 46.5243 130.781 45.9766C129.822 45.7683 128.939 45.2811 128.337 44.6393C128.666 44.1487 128.996 43.6548 129.329 43.1642C129.971 43.8833 131.034 44.4343 131.793 44.4881C132.355 44.5284 132.745 44.3403 132.812 43.9438C133.018 42.6703 129.043 43.1676 129.475 40.5132C129.668 39.3271 130.637 38.561 132.009 38.4299C132.096 37.9058 132.179 37.3816 132.266 36.8574C132.728 36.891 133.191 36.9213 133.654 36.9549C133.567 37.4757 133.484 37.9965 133.398 38.5173C134.237 38.6752 135.002 39.0347 135.552 39.485C135.229 39.9823 134.903 40.4829 134.58 40.9836C133.88 40.4762 132.958 40.0562 132.352 40.0125C131.893 39.9789 131.563 40.1301 131.506 40.4728C131.303 41.7127 135.269 41.2826 134.829 43.9807C134.616 45.2945 133.511 45.9968 132.166 46.0841Z" fill="#E5E5E5"/>
<path d="M138.395 69.579C120.196 69.7201 104.128 77.4852 85.5055 76.1042C84.5466 66.7397 83.5644 57.3013 82.5688 47.7991C100.765 47.658 116.836 39.8929 135.458 41.2739C136.417 50.6383 137.4 60.0767 138.395 69.579Z" fill="#005E1F"/>
<path d="M134.567 63.2221C134.028 58.1182 133.492 53.0277 132.959 47.9574C130.898 47.9574 129.083 46.442 128.87 44.4395C115.402 45.0409 103.007 49.4762 89.7218 50.7328C89.9382 52.7455 88.4866 54.533 86.4456 54.6036C86.9849 59.7075 87.521 64.7946 88.0537 69.865C90.1147 69.8683 91.9293 71.3871 92.1424 73.3863C105.614 72.7983 118.013 68.3664 131.291 67.0963C131.075 65.0836 132.526 63.2961 134.567 63.2221Z" fill="#99C57C"/>
<path d="M118.258 57.12C118.748 61.6023 115.668 65.9435 111.386 66.8541C107.101 67.758 103.202 64.7507 102.709 60.255C102.22 55.7726 105.3 51.4315 109.582 50.5209C113.863 49.6204 117.762 52.6276 118.258 57.12Z" fill="#005E1F"/>
<path d="M111.746 62.2849C111.806 62.836 111.869 63.3837 111.929 63.9347C111.476 64.0288 111.02 64.1262 110.567 64.2203C110.507 63.6659 110.444 63.1149 110.384 62.5604C109.405 62.6209 108.426 62.3958 107.674 61.9422C107.86 61.3777 108.047 60.8166 108.23 60.2521C109.042 60.7662 110.211 61.0081 110.957 60.8535C111.51 60.7393 111.836 60.4503 111.789 60.0505C111.646 58.7669 107.954 60.3361 107.657 57.6615C107.524 56.4653 108.253 55.464 109.538 54.9634C109.479 54.4358 109.422 53.9083 109.362 53.3774C109.815 53.2833 110.271 53.1859 110.724 53.0918C110.78 53.616 110.84 54.1401 110.897 54.6643C111.749 54.587 112.582 54.7214 113.231 55.007C113.051 55.5749 112.875 56.1461 112.695 56.7139C111.886 56.4183 110.884 56.2637 110.291 56.388C109.841 56.4821 109.562 56.7173 109.602 57.0634C109.738 58.3133 113.441 56.8114 113.74 59.5297C113.894 60.8569 113.015 61.8313 111.746 62.2849Z" fill="#E5E5E5"/>
<path d="M156.697 81.2954C140.755 72.4383 122.976 71.2791 107.4 60.8898C111.099 52.2478 114.818 43.5318 118.554 34.752C134.496 43.6091 152.275 44.7683 167.851 55.1576C164.149 63.7996 160.429 72.5156 156.697 81.2954Z" fill="#005E1F"/>
<path d="M156.437 73.86C158.438 69.1391 160.436 64.435 162.43 59.7511C160.632 58.733 159.786 56.5154 160.569 54.664C148.529 48.5453 135.567 46.2941 123.371 40.834C122.586 42.6988 120.451 43.5388 118.637 42.5947C116.636 47.3122 114.638 52.0162 112.644 56.7002C114.441 57.7216 115.287 59.9392 114.505 61.7906C126.541 67.9261 139.503 70.1773 151.702 75.624C152.488 73.7625 154.622 72.9191 156.437 73.86Z" fill="#99C57C"/>
<path d="M145.167 60.4927C143.422 64.6458 138.631 66.9104 134.456 65.5933C130.28 64.2661 128.336 59.7199 130.084 55.5568C131.829 51.4072 136.62 49.1391 140.795 50.4563C144.967 51.7801 146.911 56.3296 145.167 60.4927Z" fill="#005E1F"/>
<path d="M136.983 61.7824C136.77 62.2931 136.557 62.8004 136.344 63.3112C135.901 63.1701 135.458 63.0289 135.018 62.8878C135.231 62.3737 135.448 61.863 135.661 61.3489C134.779 60.9188 134.033 60.2367 133.597 59.474C134.033 59.0741 134.466 58.6743 134.902 58.2745C135.361 59.1246 136.264 59.9108 136.989 60.1426C137.529 60.314 137.952 60.2233 138.105 59.8537C138.601 58.6642 134.622 58.2073 135.661 55.7309C136.127 54.6221 137.246 54.108 138.608 54.3062C138.814 53.8157 139.017 53.3285 139.224 52.8379C139.666 52.979 140.109 53.1201 140.549 53.2613C140.346 53.7485 140.143 54.2323 139.939 54.7195C140.719 55.0723 141.381 55.5999 141.807 56.1711C141.374 56.5776 140.945 56.9876 140.512 57.3975C139.949 56.7389 139.15 56.1106 138.571 55.9258C138.131 55.7847 137.775 55.8519 137.642 56.1744C137.156 57.3336 141.111 57.8511 140.059 60.3711C139.55 61.5942 138.311 62.0108 136.983 61.7824Z" fill="#E5E5E5"/>
<path d="M91.7054 33.9286C97.1385 31.2691 99.4065 24.6684 96.7712 19.1855C94.1359 13.7026 87.5951 11.4138 82.1621 14.0733C76.729 16.7327 74.4609 23.3334 77.0963 28.8163C79.7316 34.2992 86.2723 36.5881 91.7054 33.9286Z" fill="#FFD524"/>
<path d="M90.2859 32.3063C94.8355 30.4392 97.0237 25.2036 95.1736 20.6123C93.3234 16.021 88.1353 13.8126 83.5858 15.6798C79.0362 17.5469 76.8479 22.7825 78.6981 27.3738C80.5483 31.9651 85.7363 34.1735 90.2859 32.3063Z" fill="#FFB02D"/>
<path d="M95.7063 25.4884C95.0171 29.7154 91.3879 32.9444 87.0029 32.978C82.0919 33.0116 78.0831 29.0198 78.0465 24.0637C78.0365 22.6895 78.3329 21.3891 78.8722 20.2266C78.7857 20.7272 78.7424 21.248 78.7457 21.7755C78.779 26.7316 82.7878 30.7234 87.7021 30.6898C91.2514 30.6629 94.3013 28.5393 95.7063 25.4884Z" fill="#F89723"/>
<path d="M87.9749 28.3043L87.9882 30.1893L86.3667 30.1994L86.3534 28.3043C85.2047 28.1531 84.0927 27.6793 83.2703 27.0073L84.126 25.2399C85.0116 25.996 86.3434 26.5302 87.2357 26.5235C87.895 26.5201 88.3078 26.2681 88.3045 25.8145C88.2945 24.3495 83.7997 25.2668 83.7764 22.2125C83.7664 20.845 84.7353 19.8907 86.2968 19.6219L86.2835 17.8109L87.905 17.8008L87.9183 19.5984C88.9205 19.7026 89.8727 20.0419 90.5952 20.5023L89.7662 22.2932C88.8605 21.7824 87.7119 21.3826 87.0027 21.3893C86.4666 21.3927 86.1137 21.5909 86.117 21.9874C86.127 23.4154 90.6219 22.5721 90.6452 25.6734C90.6518 27.1888 89.5098 28.0825 87.9749 28.3043Z" fill="#FFD524"/>
<path opacity="0.2" d="M85.5674 18.8824C85.8238 19.756 86.4064 20.5019 87.0823 21.1067C88.261 22.1584 89.7693 22.8271 91.3308 22.9984C91.8136 23.0522 92.3097 23.0556 92.7758 22.9211C94.1842 22.5112 94.2774 20.9589 93.7014 19.8097C92.9756 18.3649 91.6205 17.1889 90.1921 16.4934C89.0135 15.9188 86.6561 15.314 85.7472 16.6614C85.331 17.2796 85.3643 18.1935 85.5674 18.8824Z" fill="white"/>
<path d="M137.875 66.6903C121.161 60.4271 102.133 63.0547 85.2289 57.5207C86.9569 47.8504 88.6883 38.1634 90.4263 28.4629C107.141 34.726 126.169 32.0985 143.073 37.6325C141.345 47.3027 139.613 56.9864 137.875 66.6903Z" fill="url(#paint5_linear)"/>
<path d="M136.11 59.1677C137.033 54.0067 137.952 48.8524 138.871 43.698C136.939 43.1537 135.638 41.1914 135.994 39.1855C123.019 36.3395 109.158 36.904 96.2626 33.7422C95.9063 35.7448 94.0318 37.0082 92.1073 36.4302C91.1851 41.5913 90.2661 46.7456 89.3472 51.8966C91.2783 52.4409 92.5835 54.4032 92.2239 56.4058C105.199 59.245 119.063 58.6839 131.952 61.8491C132.315 59.8498 134.189 58.5898 136.11 59.1677Z" fill="#ACD987"/>
<path d="M122.207 48.3638C121.432 52.7352 117.21 55.8735 112.751 55.4804C108.29 55.0906 105.32 51.1661 106.099 46.7846C106.875 42.4132 111.097 39.2749 115.555 39.668C120.013 40.0578 122.986 43.9823 122.207 48.3638Z" fill="#0C8F39"/>
<path d="M114.383 51.3072C114.289 51.8381 114.193 52.3724 114.1 52.9033C113.627 52.8596 113.154 52.8159 112.681 52.7756C112.778 52.2413 112.871 51.7037 112.967 51.1695C111.992 50.9443 111.093 50.4471 110.484 49.8053C110.823 49.3315 111.163 48.8577 111.502 48.384C112.155 49.103 113.234 49.6675 114.013 49.7381C114.589 49.7918 114.989 49.6138 115.055 49.2273C115.275 47.9841 111.213 48.3806 111.672 45.79C111.879 44.6308 112.871 43.9084 114.273 43.8109C114.363 43.3002 114.452 42.7895 114.546 42.2754C115.018 42.3191 115.491 42.3628 115.964 42.4031C115.874 42.9104 115.784 43.4178 115.694 43.9285C116.55 44.1033 117.329 44.4695 117.889 44.9265C117.556 45.407 117.219 45.8908 116.886 46.3713C116.177 45.8606 115.235 45.4238 114.619 45.37C114.149 45.3263 113.813 45.4674 113.753 45.8001C113.54 47.0097 117.592 46.6804 117.123 49.3147C116.89 50.5949 115.758 51.2535 114.383 51.3072Z" fill="white"/>
<path d="M167.908 25.7607L167.528 24.625L167.148 25.7607C166.659 27.2223 165.644 28.4454 164.302 29.1846C165.644 29.9238 166.659 31.1469 167.148 32.6085L167.528 33.7442L167.908 32.6085C168.397 31.1469 169.413 29.9238 170.754 29.1846C169.413 28.4454 168.397 27.2223 167.908 25.7607Z" fill="white"/>
<path d="M88.199 66.9853L87.8195 65.8496L87.4399 66.9853C86.9505 68.4469 85.9349 69.67 84.5931 70.4092C85.9349 71.1484 86.9505 72.3715 87.4399 73.8331L87.8195 74.9688L88.199 73.8331C88.6885 72.3715 89.704 71.1484 91.0458 70.4092C89.704 69.67 88.6885 68.4469 88.199 66.9853Z" fill="white"/>
<path d="M160.106 21.6241L159.843 20.8379L159.58 21.6241C159.241 22.6389 158.538 23.4856 157.606 23.9997C158.535 24.5138 159.241 25.3605 159.58 26.3753L159.843 27.1615L160.106 26.3753C160.446 25.3605 161.148 24.5138 162.081 23.9997C161.152 23.4856 160.446 22.6389 160.106 21.6241Z" fill="white"/>
<path d="M79.9318 60.9366L79.6687 60.1504L79.4057 60.9366C79.0661 61.9514 78.3635 62.7981 77.4313 63.3122C78.3602 63.8263 79.0661 64.673 79.4057 65.6878L79.6687 66.474L79.9318 65.6878C80.2714 64.673 80.9739 63.8263 81.9062 63.3122C80.9772 62.7981 80.2714 61.9514 79.9318 60.9366Z" fill="white"/>
<path d="M164.565 62.9933L164.302 62.207L164.039 62.9933C163.7 64.008 162.997 64.8548 162.065 65.3688C162.994 65.8829 163.7 66.7297 164.039 67.7444L164.302 68.5307L164.565 67.7444C164.905 66.7297 165.607 65.8829 166.54 65.3688C165.607 64.8548 164.905 64.0047 164.565 62.9933Z" fill="white"/>
<path d="M128.965 15.4249L128.702 14.6387L128.439 15.4249C128.1 16.4397 127.397 17.2864 126.465 17.8005C127.394 18.3146 128.1 19.1613 128.439 20.176L128.702 20.9623L128.965 20.176C129.305 19.1613 130.007 18.3146 130.94 17.8005C130.011 17.2864 129.305 16.4397 128.965 15.4249Z" fill="white"/>
<path d="M63.7201 55.6476L63.457 54.8613L63.194 55.6476C62.8544 56.6623 62.1519 57.509 61.2196 58.0231C62.1485 58.5372 62.8544 59.384 63.194 60.3987L63.457 61.1849L63.7201 60.3987C64.0597 59.384 64.7622 58.5372 65.6945 58.0231C64.7622 57.509 64.0564 56.6623 63.7201 55.6476Z" fill="white"/>
<path d="M94.2982 1.35657L94.0352 0.570312L93.7721 1.35657C93.4325 2.3713 92.73 3.21804 91.7977 3.73212C92.7267 4.24621 93.4325 5.09295 93.7721 6.10768L94.0352 6.89393L94.2982 6.10768C94.6378 5.09295 95.3404 4.24621 96.2726 3.73212C95.3404 3.21804 94.6378 2.36794 94.2982 1.35657Z" fill="white"/>
<path d="M87.1358 5.17714L86.9527 4.63281L86.7695 5.17714C86.5332 5.87939 86.047 6.4674 85.4011 6.82357C86.047 7.17973 86.5332 7.76774 86.7695 8.47L86.9527 9.01433L87.1358 8.47C87.3722 7.76774 87.8583 7.17973 88.5042 6.82357C87.8616 6.4674 87.3722 5.87939 87.1358 5.17714Z" fill="white"/>
<path d="M122.513 19.517L122.33 18.9727L122.147 19.517C121.91 20.2192 121.424 20.8073 120.778 21.1634C121.424 21.5196 121.91 22.1076 122.147 22.8098L122.33 23.3542L122.513 22.8098C122.749 22.1076 123.235 21.5196 123.881 21.1634C123.235 20.8073 122.749 20.2192 122.513 19.517Z" fill="white"/>
<path d="M151.657 73.1907C133.914 71.4133 116.171 78.8323 98.4275 77.8108C97.665 68.0129 96.9059 58.2015 96.1434 48.3734C113.886 50.1508 131.63 42.7318 149.373 43.7533C150.135 53.5512 150.898 63.3626 151.657 73.1907Z" fill="url(#paint6_linear)"/>
<path d="M148.057 66.3696C147.651 61.1414 147.245 55.9198 146.835 50.7017C144.831 50.6714 143.076 49.1056 142.916 47.0762C129.652 47.6507 116.383 51.7433 103.118 51.9919C103.278 54.0214 101.78 55.7216 99.7756 55.6544C100.182 60.8826 100.588 66.1042 100.998 71.3223C103.002 71.3526 104.757 72.9183 104.916 74.9478C118.181 74.3699 131.449 70.274 144.714 70.0321C144.558 68.0026 146.053 66.299 148.057 66.3696Z" fill="#ACD987"/>
<path d="M131.888 59.4853C132.238 63.9105 128.945 68.03 124.533 68.7893C120.122 69.5554 116.259 66.5213 115.91 62.0827C115.56 57.6575 118.853 53.538 123.265 52.7787C127.68 52.0126 131.539 55.0433 131.888 59.4853Z" fill="#0C8F39"/>
<path d="M125.062 64.3334C125.106 64.871 125.149 65.412 125.189 65.9496C124.723 66.0302 124.253 66.1075 123.787 66.1881C123.744 65.6472 123.701 65.1028 123.657 64.5619C122.655 64.5921 121.663 64.3435 120.911 63.8798C121.12 63.3354 121.33 62.7878 121.54 62.2434C122.352 62.771 123.538 63.0398 124.307 62.9087C124.876 62.8113 125.219 62.5391 125.189 62.1493C125.089 60.8927 121.257 62.314 121.05 59.6898C120.957 58.5171 121.736 57.5629 123.068 57.1093C123.028 56.5918 122.985 56.0744 122.945 55.5569C123.411 55.4763 123.88 55.399 124.347 55.3184C124.387 55.8324 124.427 56.3465 124.47 56.8606C125.342 56.8102 126.188 56.9648 126.844 57.2638C126.641 57.8149 126.441 58.3659 126.238 58.917C125.422 58.6045 124.403 58.423 123.791 58.5272C123.328 58.6045 123.035 58.8263 123.061 59.1656C123.158 60.392 126.994 59.0312 127.207 61.6991C127.31 63.0028 126.378 63.9302 125.062 64.3334Z" fill="white"/>
<path d="M149.961 85.981C155.999 85.981 160.895 81.0407 160.895 74.9465C160.895 68.8524 155.999 63.9121 149.961 63.9121C143.922 63.9121 139.026 68.8524 139.026 74.9465C139.026 81.0407 143.922 85.981 149.961 85.981Z" fill="#FFD524"/>
<path d="M156.246 81.2913C159.719 77.7865 159.719 72.1041 156.246 68.5993C152.773 65.0945 147.143 65.0945 143.67 68.5993C140.197 72.1041 140.197 77.7865 143.67 81.2913C147.143 84.7961 152.773 84.7961 156.246 81.2913Z" fill="#FFB02D"/>
<path d="M158.727 76.4337C158.038 80.6607 154.409 83.8897 150.024 83.9233C145.113 83.9569 141.104 79.9651 141.067 75.0091C141.057 73.6348 141.353 72.3345 141.893 71.1719C141.806 71.6725 141.763 72.1933 141.766 72.7209C141.8 77.6769 145.808 81.6687 150.723 81.6351C154.272 81.6082 157.322 79.4847 158.727 76.4337Z" fill="#F89723"/>
<path d="M150.996 79.2496L151.009 81.1346L149.388 81.1447L149.374 79.2496C148.226 79.0984 147.114 78.6247 146.291 77.9526L147.147 76.1853C148.032 76.9413 149.364 77.4755 150.257 77.4688C150.916 77.4654 151.329 77.2134 151.325 76.7598C151.315 75.2948 146.821 76.2121 146.797 73.1579C146.787 71.7903 147.756 70.836 149.318 70.5672L149.304 68.7562L150.926 68.7461L150.939 70.5437C151.941 70.6479 152.894 70.9872 153.616 71.4476L152.787 73.2385C151.881 72.7278 150.733 72.3279 150.024 72.3346C149.488 72.338 149.135 72.5362 149.138 72.9327C149.148 74.3607 153.643 73.5174 153.666 76.6187C153.673 78.1341 152.531 79.0279 150.996 79.2496Z" fill="#FFD524"/>
<path opacity="0.2" d="M148.588 69.8277C148.845 70.7013 149.427 71.4472 150.103 72.052C151.282 73.1037 152.79 73.7724 154.352 73.9438C154.834 73.9975 155.331 74.0009 155.797 73.8665C157.205 73.4565 157.298 71.9042 156.722 70.7551C155.996 69.3102 154.641 68.1342 153.213 67.4387C152.034 66.8641 149.677 66.2593 148.768 67.6067C148.352 68.2249 148.385 69.1389 148.588 69.8277Z" fill="white"/>
<path d="M162.489 57.1187C164.798 52.5404 162.991 46.9406 158.454 44.6112C153.918 42.2817 148.369 44.1047 146.061 48.683C143.752 53.2612 145.559 58.861 150.095 61.1905C154.632 63.5199 160.181 61.6969 162.489 57.1187Z" fill="#FFD524"/>
<path d="M154.786 60.4591C158.916 60.1696 162.031 56.5568 161.744 52.3896C161.457 48.2224 157.877 45.0789 153.748 45.3684C149.618 45.6579 146.503 49.2707 146.79 53.4379C147.077 57.6051 150.657 60.7486 154.786 60.4591Z" fill="#FFB02D"/>
<path d="M158.988 58.7803C156.214 61.0618 152.136 61.0618 149.346 58.6123C146.222 55.8672 145.896 51.0892 148.613 47.9374C149.369 47.0638 150.275 46.4086 151.257 45.9785C150.924 46.2473 150.611 46.5497 150.321 46.8857C147.601 50.0375 147.931 54.8155 151.054 57.5606C153.311 59.5431 156.411 59.9194 158.988 58.7803Z" fill="#F89723"/>
<path d="M152.544 56.2075L151.512 57.4037L150.48 56.4965L151.519 55.2902C150.876 54.5477 150.433 53.6237 150.287 52.7332L151.802 52.0982C151.942 53.076 152.491 54.1613 153.057 54.6586C153.477 55.0282 153.876 55.1021 154.126 54.8131C154.928 53.8824 151.582 51.9302 153.257 49.9881C154.006 49.1178 155.148 49.0607 156.283 49.7697L157.276 48.6172L158.308 49.5244L157.322 50.6668C157.898 51.2951 158.314 52.0478 158.514 52.7467L156.999 53.412C156.71 52.5787 156.203 51.6816 155.754 51.2851C155.414 50.986 155.081 50.9121 154.865 51.1641C154.083 52.0713 157.389 54.0705 155.687 56.0429C154.852 57.0106 153.636 56.9333 152.544 56.2075Z" fill="#FFD524"/>
<path opacity="0.2" d="M156.23 48.8977C155.911 49.5966 155.864 50.393 155.957 51.159C156.12 52.4863 156.703 53.7597 157.595 54.7476C157.872 55.0534 158.181 55.3356 158.551 55.5103C159.666 56.0446 160.585 55.1172 160.855 54.0655C161.195 52.745 160.988 51.2397 160.469 49.9931C160.039 48.9649 158.887 47.2547 157.565 47.5974C156.969 47.7519 156.483 48.3467 156.23 48.8977Z" fill="white"/>
<path d="M134.877 73.9196C135.159 68.7907 131.268 64.4022 126.185 64.1177C121.103 63.8331 116.754 67.7602 116.472 72.8891C116.191 78.018 120.082 82.4065 125.164 82.691C130.247 82.9756 134.595 79.0485 134.877 73.9196Z" fill="#FFD524"/>
<path d="M132.031 77.412C134.219 73.8669 133.146 69.2022 129.633 66.9933C126.12 64.7844 121.498 65.8677 119.309 69.4129C117.12 72.9581 118.194 77.6227 121.707 79.8316C125.219 82.0405 129.842 80.9572 132.031 77.412Z" fill="#FFB02D"/>
<path d="M132.048 69.4336C133.939 72.498 133.423 76.5804 130.663 79.0635C127.57 81.8423 122.832 81.5668 120.078 78.4453C119.316 77.5784 118.786 76.5905 118.487 75.5523C118.706 75.9185 118.966 76.2713 119.259 76.604C122.013 79.7254 126.754 80.001 129.844 77.2222C132.081 75.2129 132.844 72.1552 132.048 69.4336Z" fill="#F89723"/>
<path d="M128.705 75.5571L129.751 76.7432L128.729 77.6605L127.676 76.4676C126.864 77.0153 125.898 77.3412 125.009 77.3782L124.577 75.7788C125.555 75.762 126.691 75.3521 127.254 74.8481C127.67 74.4751 127.793 74.0853 127.54 73.7997C126.727 72.8757 124.384 75.9838 122.689 74.0618C121.93 73.2017 122.016 72.0525 122.855 71.0075L121.85 69.8685L122.872 68.9512L123.871 70.0835C124.563 69.5862 125.352 69.267 126.065 69.1528L126.528 70.7522C125.672 70.937 124.723 71.3301 124.277 71.7299C123.941 72.0324 123.827 72.3583 124.044 72.6069C124.836 73.5074 127.22 70.4464 128.945 72.402C129.787 73.3495 129.558 74.5558 128.705 75.5571Z" fill="#FFD524"/>
<path opacity="0.2" d="M121.986 70.9426C122.632 71.3525 123.411 71.497 124.174 71.5003C125.499 71.5037 126.824 71.0837 127.91 70.3143C128.243 70.0757 128.562 69.8035 128.782 69.4541C129.448 68.4024 128.652 67.3675 127.653 66.9643C126.398 66.4569 124.893 66.4737 123.601 66.8332C122.536 67.1323 120.711 68.0697 120.878 69.4339C120.954 70.0589 121.48 70.62 121.986 70.9426Z" fill="white"/>
<path d="M76.6968 50.8791C80.6766 47.677 81.3306 41.8253 78.1575 37.809C74.9845 33.7926 69.1859 33.1326 65.2061 36.3348C61.2263 39.537 60.5723 45.3887 63.7453 49.405C66.9184 53.4213 72.717 54.0813 76.6968 50.8791Z" fill="#FFD524"/>
<path d="M70.9514 51.166C75.0907 51.166 78.4462 47.7798 78.4462 43.6026C78.4462 39.4254 75.0907 36.0391 70.9514 36.0391C66.8122 36.0391 63.4567 39.4254 63.4567 43.6026C63.4567 47.7798 66.8122 51.166 70.9514 51.166Z" fill="#FFB02D"/>
<path d="M75.4123 37.5234C78.2924 39.6638 79.3112 43.6488 77.6564 46.9854C75.8052 50.7218 71.3004 52.2338 67.5979 50.3656C66.5724 49.8481 65.7167 49.1257 65.0575 48.2723C65.3971 48.531 65.7667 48.7628 66.1629 48.9611C69.8653 50.8293 74.3702 49.3172 76.2214 45.5809C77.5599 42.8794 77.147 39.7579 75.4123 37.5234Z" fill="#F89723"/>
<path d="M74.5506 44.4628L75.959 45.1751L75.3464 46.4116L73.9313 45.6959C73.3786 46.5091 72.6029 47.171 71.7871 47.5372L70.7983 46.2134C71.7006 45.8337 72.6062 45.0273 72.9425 44.3486C73.1922 43.8479 73.1622 43.438 72.8226 43.2666C71.7272 42.7122 70.6917 46.4721 68.411 45.323C67.3888 44.8089 67.0492 43.7068 67.4454 42.4199L66.0936 41.7378L66.7063 40.5047L68.0481 41.1834C68.5075 40.4643 69.1235 39.8696 69.7461 39.5L70.7616 40.8138C70.0358 41.3044 69.3 42.0234 69.0303 42.5644C68.8272 42.9743 68.8405 43.317 69.1368 43.4649C70.2023 44.0025 71.2944 40.2728 73.6117 41.4421C74.7471 42.0066 74.9768 43.2129 74.5506 44.4628Z" fill="#FFD524"/>
<path opacity="0.2" d="M66.6162 42.6854C67.3654 42.8232 68.1445 42.6686 68.8537 42.3864C70.0856 41.8958 71.1644 41.0087 71.8869 39.8865C72.11 39.5404 72.3031 39.1674 72.3797 38.7609C72.6127 37.5378 71.494 36.8725 70.4186 36.8692C69.0668 36.8658 67.6717 37.4437 66.6063 38.2636C65.7273 38.939 64.3755 40.4947 65.0314 41.6976C65.3344 42.252 66.0269 42.5745 66.6162 42.6854Z" fill="white"/>
<path d="M113.86 14.6435C115.504 10.954 113.873 6.61792 110.217 4.95848C106.562 3.29903 102.265 4.94468 100.62 8.63413C98.9761 12.3236 100.607 16.6597 104.263 18.3191C107.919 19.9786 112.215 18.3329 113.86 14.6435Z" fill="#FFD524"/>
<path d="M110.84 16.3601C113.422 14.3514 113.902 10.6106 111.911 8.00483C109.921 5.39902 106.214 4.91493 103.632 6.92357C101.05 8.93222 100.57 12.673 102.56 15.2788C104.551 17.8846 108.258 18.3687 110.84 16.3601Z" fill="#FFB02D"/>
<path d="M111.923 15.2538C110.218 17.5185 107.095 18.2779 104.511 16.9204C101.618 15.4016 100.492 11.803 101.997 8.88314C102.414 8.07336 102.99 7.40471 103.662 6.89062C103.456 7.15607 103.273 7.44839 103.109 7.76088C101.605 10.6808 102.73 14.2794 105.623 15.7981C107.718 16.8935 110.158 16.6045 111.923 15.2538Z" fill="#F89723"/>
<path d="M106.518 14.4834L105.945 15.5922L104.99 15.0916L105.566 13.976C104.94 13.5258 104.43 12.9008 104.154 12.2489L105.2 11.4795C105.486 12.2019 106.105 12.931 106.628 13.2066C107.017 13.4115 107.334 13.3947 107.474 13.1259C107.92 12.2624 104.996 11.3921 105.925 9.5945C106.342 8.78809 107.204 8.53273 108.203 8.86201L108.752 7.79688L109.708 8.29752L109.162 9.35594C109.718 9.72891 110.174 10.2296 110.454 10.7268L109.415 11.5165C109.038 10.9318 108.489 10.3404 108.07 10.1187C107.753 9.95403 107.487 9.96075 107.367 10.1926C106.934 11.0326 109.831 11.9465 108.889 13.7744C108.432 14.6682 107.487 14.8362 106.518 14.4834Z" fill="#FFD524"/>
<path opacity="0.2" d="M108.004 8.20063C107.887 8.79536 107.997 9.41361 108.21 9.98146C108.58 10.966 109.256 11.8328 110.121 12.4242C110.388 12.6057 110.677 12.7636 110.994 12.8308C111.946 13.0324 112.479 12.1487 112.492 11.2952C112.509 10.22 112.079 9.10448 111.453 8.24767C110.937 7.54206 109.742 6.44668 108.793 6.95405C108.36 7.18589 108.097 7.73358 108.004 8.20063Z" fill="white"/>
<path d="M170.927 26L162 35.0088H166.663V67.6609H175.191V35.0088H179.854L170.927 26Z" fill="url(#paint7_linear)"/>
</g>
<defs>
<linearGradient id="paint0_linear" x1="36.0718" y1="38.5365" x2="36.0718" y2="-29.8815" gradientUnits="userSpaceOnUse">
<stop stop-color="white" stop-opacity="0"/>
<stop offset="1" stop-color="white"/>
</linearGradient>
<linearGradient id="paint1_linear" x1="129.072" y1="-29.8723" x2="129.072" y2="60.4361" gradientUnits="userSpaceOnUse">
<stop stop-color="white"/>
<stop offset="0.00650889" stop-color="white" stop-opacity="0.9935"/>
<stop offset="1" stop-color="white" stop-opacity="0"/>
</linearGradient>
<linearGradient id="paint2_linear" x1="64.7151" y1="-14.4976" x2="64.7151" y2="65.2084" gradientUnits="userSpaceOnUse">
<stop stop-color="white"/>
<stop offset="1" stop-color="white" stop-opacity="0"/>
</linearGradient>
<linearGradient id="paint3_linear" x1="85.8247" y1="11.0632" x2="85.8247" y2="84.4284" gradientUnits="userSpaceOnUse">
<stop stop-color="white"/>
<stop offset="1" stop-color="white" stop-opacity="0"/>
</linearGradient>
<linearGradient id="paint4_linear" x1="10.9267" y1="-4.30698" x2="10.9267" y2="64.5255" gradientUnits="userSpaceOnUse">
<stop stop-color="white"/>
<stop offset="1" stop-color="white" stop-opacity="0"/>
</linearGradient>
<linearGradient id="paint5_linear" x1="142.987" y1="71.9762" x2="88.9067" y2="27.0408" gradientUnits="userSpaceOnUse">
<stop stop-color="#0C8F39"/>
<stop offset="0.4895" stop-color="#078531"/>
<stop offset="1" stop-color="#007624"/>
</linearGradient>
<linearGradient id="paint6_linear" x1="157.931" y1="76.9962" x2="94.3763" y2="47.2642" gradientUnits="userSpaceOnUse">
<stop stop-color="#0C8F39"/>
<stop offset="0.4895" stop-color="#078531"/>
<stop offset="1" stop-color="#007624"/>
</linearGradient>
<linearGradient id="paint7_linear" x1="170.927" y1="-20.8221" x2="170.927" y2="58.5248" gradientUnits="userSpaceOnUse">
<stop stop-color="white"/>
<stop offset="1" stop-color="white" stop-opacity="0"/>
</linearGradient>
<clipPath id="clip0">
<rect width="185" height="86" fill="white"/>
</clipPath>
</defs>
</svg>
