<svg width="80" height="62" viewBox="0 0 80 62" fill="none" xmlns="http://www.w3.org/2000/svg">
<path d="M28.8925 36.05C28.8925 32.7033 24.1718 30.1797 17.9116 30.1797C11.6514 30.1797 6.93066 32.7033 6.93066 36.05C6.93066 39.3967 11.6514 41.9203 17.9116 41.9203C24.1718 41.9203 28.8925 39.3967 28.8925 36.05ZM9.27426 36.05C9.27426 34.5773 12.56 32.5234 17.9114 32.5234C23.2629 32.5234 26.5486 34.5775 26.5486 36.05C26.5486 37.5225 23.2629 39.5766 17.9114 39.5766C12.56 39.5766 9.27426 37.5226 9.27426 36.05Z" fill="url(#paint0_linear)"/>
<path d="M55.816 27.2617C56.4634 27.2617 56.9879 26.7372 56.9879 26.0898C56.9879 25.4425 56.4634 24.918 55.816 24.918H33.0454C32.3981 24.918 31.8735 25.4425 31.8735 26.0898C31.8735 26.7372 32.3981 27.2617 33.0454 27.2617H55.816Z" fill="url(#paint1_linear)"/>
<path d="M71.1767 29.9169V3.65734C71.1767 1.68797 69.5745 0.0859375 67.6053 0.0859375H3.57141C1.60219 0.0859375 0 1.68813 0 3.65734V44.9027C0 46.872 1.60219 48.4741 3.57141 48.4741H10.6347C11.282 48.4741 11.8066 47.9495 11.8066 47.3022C11.8066 46.6548 11.282 46.1303 10.6347 46.1303H3.57141C2.89438 46.1303 2.34375 45.5797 2.34375 44.9027V18.65H68.833V28.8419C66.9955 28.1634 65.0102 27.7923 62.9398 27.7923C58.6941 27.7923 54.8059 29.3517 51.8172 31.9273H44.4836C43.8363 31.9273 43.3117 32.4519 43.3117 33.0992C43.3117 33.7466 43.8363 34.2711 44.4836 34.2711H49.5675C47.2598 37.1813 45.8798 40.8586 45.8798 44.8525C45.8798 45.2823 45.8963 45.7084 45.9277 46.1305H15.3202C14.6728 46.1305 14.1483 46.655 14.1483 47.3023C14.1483 47.9497 14.6728 48.4742 15.3202 48.4742H46.2681C47.9334 56.1472 54.7755 61.9127 62.9398 61.9127C66.8291 61.9127 70.4923 60.6373 73.5339 58.2247C74.0409 57.8225 74.1259 57.0853 73.7237 56.5783C73.3217 56.0714 72.5845 55.9862 72.0773 56.3884C69.4545 58.4691 66.2948 59.5687 62.94 59.5687C54.8255 59.5687 48.2237 52.967 48.2237 44.8523C48.2237 36.7377 54.8255 30.1359 62.94 30.1359C71.0547 30.1359 77.6564 36.7377 77.6564 44.8523C77.6564 47.8605 76.7544 50.7536 75.0477 53.2184C74.6792 53.7505 74.8119 54.4806 75.3439 54.8491C75.8761 55.2177 76.6061 55.0847 76.9745 54.5528C78.9538 51.6939 80 48.3397 80 44.8525C80 38.4308 76.433 32.8272 71.1767 29.9169ZM2.34375 16.3062V12.3136H53.4733C54.1206 12.3136 54.6452 11.7891 54.6452 11.1417C54.6452 10.4944 54.1206 9.96984 53.4733 9.96984H2.34375V3.65734C2.34375 2.98031 2.89438 2.42969 3.57141 2.42969H67.6052C68.2822 2.42969 68.8328 2.98031 68.8328 3.65734V9.96984H58.1586C57.5112 9.96984 56.9867 10.4944 56.9867 11.1417C56.9867 11.7891 57.5112 12.3136 58.1586 12.3136H68.8328V16.3062H2.34375Z" fill="url(#paint2_linear)"/>
<defs>
<linearGradient id="paint0_linear" x1="28.8925" y1="30.1797" x2="20.3312" y2="48.5045" gradientUnits="userSpaceOnUse">
<stop stop-color="#BD8727"/>
<stop offset="0.483111" stop-color="#FFD574"/>
<stop offset="0.611179" stop-color="#FECA50"/>
<stop offset="1" stop-color="#BD8727"/>
</linearGradient>
<linearGradient id="paint1_linear" x1="56.9879" y1="24.918" x2="56.6268" y2="29.3451" gradientUnits="userSpaceOnUse">
<stop stop-color="#BD8727"/>
<stop offset="0.483111" stop-color="#FFD574"/>
<stop offset="0.611179" stop-color="#FECA50"/>
<stop offset="1" stop-color="#BD8727"/>
</linearGradient>
<linearGradient id="paint2_linear" x1="80" y1="0.0859342" x2="25.4714" y2="80.8196" gradientUnits="userSpaceOnUse">
<stop stop-color="#BD8727"/>
<stop offset="0.483111" stop-color="#FFD574"/>
<stop offset="0.611179" stop-color="#FECA50"/>
<stop offset="1" stop-color="#BD8727"/>
</linearGradient>
</defs>
</svg>
