<svg width="80" height="80" viewBox="0 0 80 80" fill="none" xmlns="http://www.w3.org/2000/svg">
<path d="M42.5839 38.7708C42.0759 38.6017 41.5544 38.4236 41.0362 38.2363V31.0016C42.5312 31.2191 43.4297 31.9473 43.4945 32.0014C43.9828 32.4202 44.7189 32.3664 45.1414 31.8798C45.5659 31.3913 45.5139 30.6511 45.0251 30.2267C44.94 30.1527 43.4556 28.8933 41.0362 28.6397V27.8633C41.0362 27.2159 40.5117 26.6914 39.8644 26.6914C39.217 26.6914 38.6925 27.2159 38.6925 27.8633V28.7305C38.3961 28.7831 38.0923 28.8505 37.7798 28.9392C35.69 29.532 34.1484 31.2384 33.7567 33.3925C33.4131 35.2827 34.0631 37.0945 35.4531 38.1213C36.2591 38.7167 37.2742 39.2619 38.6923 39.8448V48.8256C37.24 48.7741 36.3666 48.527 34.8237 47.5767C34.273 47.2377 33.5509 47.4088 33.2114 47.9599C32.8719 48.5108 33.0436 49.2327 33.5945 49.5722C35.5897 50.8013 36.8647 51.1088 38.6923 51.1683V52.1342C38.6923 52.7816 39.2169 53.3061 39.8642 53.3061C40.5116 53.3061 41.0361 52.7816 41.0361 52.1342V51.0866C44.3705 50.5706 46.4781 47.9713 46.885 45.4099C47.3623 42.4053 45.6739 39.7995 42.5839 38.7708ZM36.8458 36.2359C36.1802 35.7444 35.8802 34.8155 36.0627 33.8117C36.2433 32.8181 36.9575 31.6086 38.4195 31.1938C38.5116 31.1677 38.6025 31.1441 38.6925 31.1223V37.2878C37.9861 36.9589 37.3502 36.6086 36.8458 36.2359ZM44.5703 45.042C44.325 46.5869 43.13 48.237 41.0362 48.705V40.7202C41.2966 40.8102 41.5631 40.9011 41.8436 40.9945C44.8133 41.9831 44.6816 44.3425 44.5703 45.042Z" fill="url(#paint0_linear)"/>
<path d="M74.1952 31.4512H74.1242C72.6597 31.4512 71.3442 30.5114 70.8508 29.1127C70.4659 28.0219 70.0172 26.9388 69.517 25.8934C68.8742 24.5502 69.1381 22.9516 70.1742 21.9156L70.2245 21.8653C72.4878 19.602 72.4878 15.9191 70.2245 13.6558L66.3442 9.77547C64.0806 7.51234 60.3978 7.51266 58.1361 9.77422L58.0842 9.82594C57.0484 10.8619 55.4502 11.1264 54.1064 10.4828C53.0614 9.98281 51.9783 9.53406 50.8873 9.14937C49.4886 8.65578 48.5488 7.34031 48.5488 5.87578V5.80484C48.5488 2.60406 45.9447 0 42.7439 0H37.2562C34.0555 0 31.4514 2.60406 31.4514 5.80484V5.87578C31.4514 7.34031 30.5116 8.65578 29.1128 9.14922C28.022 9.53406 26.9389 9.98281 25.8936 10.483C24.5502 11.1256 22.9516 10.8619 21.9158 9.82578L21.8655 9.77547C20.7689 8.67906 19.3111 8.07531 17.7606 8.07531C16.21 8.07531 14.7522 8.67906 13.6558 9.77547L9.77547 13.6558C7.51219 15.9191 7.51219 19.602 9.77547 21.8653L9.82578 21.9156C10.8619 22.9516 11.1258 24.5502 10.4828 25.8936C9.98281 26.9386 9.53406 28.0217 9.14937 29.1127C8.65578 30.5114 7.34031 31.4512 5.87578 31.4512H5.80484C2.60406 31.4512 0 34.0553 0 37.2561V42.7438C0 45.9445 2.60406 48.5486 5.80484 48.5486H5.87578C7.34031 48.5486 8.65578 49.4884 9.14922 50.8872C9.53406 51.978 9.98281 53.0611 10.483 54.1064C11.1258 55.4497 10.8619 57.0483 9.82578 58.0842L9.77547 58.1345C7.51219 60.3978 7.51219 64.0808 9.77547 66.3441L13.6558 70.2242C14.7522 71.3208 16.21 71.9245 17.7606 71.9245C19.3111 71.9245 20.7689 71.3208 21.8655 70.2244L21.9158 70.1741C22.9517 69.1383 24.5502 68.8739 25.8937 69.517C26.9387 70.017 28.0219 70.4658 29.1128 70.8505C30.5116 71.3441 31.4514 72.6595 31.4514 74.1241V74.195C31.4514 77.3958 34.0555 79.9998 37.2562 79.9998H42.7439C45.9447 79.9998 48.5488 77.3958 48.5488 74.195V74.1241C48.5488 72.6595 49.4886 71.3441 50.8873 70.8506C51.9781 70.4658 53.0613 70.017 54.1066 69.5169C55.4498 68.8741 57.0483 69.1378 58.0844 70.1741L58.1347 70.2244C60.3981 72.4875 64.0808 72.4875 66.3442 70.2244L70.2245 66.3441C72.4878 64.0808 72.4878 60.3978 70.2245 58.1345L70.1742 58.0842C69.1381 57.0483 68.8742 55.4497 69.5172 54.1063C70.0172 53.0612 70.4659 51.9781 70.8506 50.8872C71.3442 49.4884 72.6597 48.5486 74.1242 48.5486H74.1952C77.3959 48.5486 80 45.9445 80 42.7438V37.2561C80 34.0553 77.3959 31.4512 74.1952 31.4512ZM77.6562 42.7439C77.6562 44.6523 76.1034 46.205 74.1952 46.205H74.1242C71.6677 46.205 69.4641 47.7733 68.6403 50.1077C68.2833 51.12 67.867 52.1248 67.403 53.0945C66.3317 55.3328 66.7792 58.0041 68.5167 59.7417L68.567 59.792C69.9167 61.1416 69.9167 63.3372 68.567 64.6867L64.6867 68.567C63.3372 69.9169 61.1416 69.9169 59.792 68.567L59.7417 68.5167C58.0042 66.7795 55.3331 66.3319 53.0947 67.4028C52.1248 67.867 51.1198 68.2833 50.1077 68.6405C47.7734 69.4641 46.205 71.6677 46.205 74.1242V74.1952C46.205 76.1036 44.6522 77.6562 42.7439 77.6562H37.2562C35.3478 77.6562 33.7952 76.1034 33.7952 74.1952V74.1242C33.7952 71.6677 32.2269 69.4641 29.8925 68.6403C28.8802 68.2833 27.8753 67.867 26.9056 67.403C26.0941 67.0145 25.2258 66.8258 24.3655 66.8258C22.8531 66.8258 21.3661 67.4092 20.2584 68.5167L20.2081 68.567C19.5544 69.2209 18.6853 69.5808 17.7608 69.5808C16.8363 69.5808 15.9672 69.2208 15.3134 68.567L11.4331 64.6867C10.0834 63.3372 10.0834 61.1416 11.4331 59.792L11.4834 59.7417C13.2209 58.0041 13.6684 55.3328 12.5973 53.0947C12.1331 52.1248 11.7169 51.1198 11.3597 50.1077C10.5361 47.7734 8.3325 46.205 5.87594 46.205H5.805C3.89656 46.205 2.34391 44.6522 2.34391 42.7439V37.2562C2.34391 35.3478 3.89672 33.7952 5.805 33.7952H5.87594C8.3325 33.7952 10.5361 32.2269 11.3598 29.8925C11.7169 28.8802 12.1331 27.8753 12.5972 26.9056C13.6684 24.6673 13.2209 21.9961 11.4834 20.2584L11.4331 20.2081C10.0834 18.8586 10.0834 16.663 11.4331 15.3134L15.3133 11.4328C15.967 10.7791 16.8361 10.4192 17.7606 10.4192C18.6852 10.4192 19.5542 10.7792 20.208 11.433L20.2583 11.4833C21.9959 13.2208 24.6672 13.6684 26.9053 12.5972C27.8752 12.133 28.8802 11.7167 29.8923 11.3595C32.2266 10.5359 33.795 8.33234 33.795 5.87578V5.80484C33.795 3.89641 35.3478 2.34375 37.2561 2.34375H42.7438C44.6522 2.34375 46.2048 3.89656 46.2048 5.80484V5.87578C46.2048 8.33234 47.7731 10.5359 50.1075 11.3597C51.1198 11.7167 52.1247 12.133 53.0944 12.597C55.3325 13.6684 58.0041 13.2208 59.74 11.4845L59.7919 11.433C61.1414 10.0831 63.337 10.0831 64.6866 11.433L68.5669 15.3133C69.9166 16.6628 69.9166 18.8584 68.5669 20.208L68.5166 20.2583C66.7791 21.9959 66.3316 24.6672 67.4027 26.9053C67.8669 27.8752 68.2831 28.8802 68.6403 29.8923C69.4639 32.2266 71.6675 33.795 74.1241 33.795H74.195C76.1034 33.795 77.6561 35.3478 77.6561 37.2561V42.7439H77.6562Z" fill="url(#paint1_linear)"/>
<path d="M15.9917 40.0005C15.9917 26.7622 26.7619 15.9922 40 15.9922C45.4342 15.9922 50.5595 17.7627 54.8218 21.1123C55.3306 21.5123 56.0672 21.4238 56.4672 20.9152C56.8672 20.4063 56.7787 19.6694 56.27 19.2697C51.5908 15.5922 45.9647 13.6484 40 13.6484C25.4694 13.6484 13.6479 25.4698 13.6479 40.0005C13.6479 46.01 15.6181 51.6697 19.3458 56.3677C19.577 56.6592 19.919 56.8111 20.2645 56.8111C20.5197 56.8111 20.7767 56.7281 20.9922 56.5572C21.499 56.155 21.584 55.4178 21.1817 54.9108C17.7864 50.6316 15.9917 45.4756 15.9917 40.0005Z" fill="url(#paint2_linear)"/>
<path d="M58.7934 23.2006C58.2915 23.6094 58.2162 24.3477 58.6248 24.8494C62.0965 29.1114 64.0084 34.4923 64.0084 40.0005C64.0084 53.2387 53.2383 64.0088 40.0001 64.0088C34.4903 64.0088 29.1083 62.0958 24.8453 58.622C24.3434 58.2133 23.6051 58.2886 23.1965 58.7903C22.7878 59.292 22.8629 60.0302 23.3648 60.4391C28.0447 64.2523 33.9525 66.3525 40.0001 66.3525C54.5308 66.3525 66.3522 54.5311 66.3522 40.0005C66.3522 33.9547 64.2533 28.0483 60.4422 23.3694C60.0336 22.8677 59.2956 22.792 58.7934 23.2006Z" fill="url(#paint3_linear)"/>
<path d="M40 19.6094C28.7566 19.6094 19.6094 28.7566 19.6094 40C19.6094 51.2434 28.7566 60.3906 40 60.3906C51.2434 60.3906 60.3906 51.2434 60.3906 40C60.3906 28.7566 51.2434 19.6094 40 19.6094ZM40 58.0469C30.0489 58.0469 21.9531 49.9511 21.9531 40C21.9531 30.0489 30.0489 21.9531 40 21.9531C49.9511 21.9531 58.0469 30.0489 58.0469 40C58.0469 49.9511 49.9511 58.0469 40 58.0469Z" fill="url(#paint4_linear)"/>
<defs>
<linearGradient id="paint0_linear" x1="46.9649" y1="26.6914" x2="24.6592" y2="40.048" gradientUnits="userSpaceOnUse">
<stop stop-color="#BD8727"/>
<stop offset="0.483111" stop-color="#FFD574"/>
<stop offset="0.611179" stop-color="#FECA50"/>
<stop offset="1" stop-color="#BD8727"/>
</linearGradient>
<linearGradient id="paint1_linear" x1="80" y1="-4.28106e-06" x2="4.62573" y2="86.2463" gradientUnits="userSpaceOnUse">
<stop stop-color="#BD8727"/>
<stop offset="0.483111" stop-color="#FFD574"/>
<stop offset="0.611179" stop-color="#FECA50"/>
<stop offset="1" stop-color="#BD8727"/>
</linearGradient>
<linearGradient id="paint2_linear" x1="56.7177" y1="13.6484" x2="16.0391" y2="60.0944" gradientUnits="userSpaceOnUse">
<stop stop-color="#BD8727"/>
<stop offset="0.483111" stop-color="#FFD574"/>
<stop offset="0.611179" stop-color="#FECA50"/>
<stop offset="1" stop-color="#BD8727"/>
</linearGradient>
<linearGradient id="paint3_linear" x1="66.3522" y1="22.9375" x2="25.4479" y2="69.7461" gradientUnits="userSpaceOnUse">
<stop stop-color="#BD8727"/>
<stop offset="0.483111" stop-color="#FFD574"/>
<stop offset="0.611179" stop-color="#FECA50"/>
<stop offset="1" stop-color="#BD8727"/>
</linearGradient>
<linearGradient id="paint4_linear" x1="60.3906" y1="19.6094" x2="21.9673" y2="63.5748" gradientUnits="userSpaceOnUse">
<stop stop-color="#BD8727"/>
<stop offset="0.483111" stop-color="#FFD574"/>
<stop offset="0.611179" stop-color="#FECA50"/>
<stop offset="1" stop-color="#BD8727"/>
</linearGradient>
</defs>
</svg>
