<svg width="12" height="12" viewBox="0 0 12 12" fill="none" xmlns="http://www.w3.org/2000/svg">
<path d="M5.45913 0.222973C5.60586 -0.0743249 6.0298 -0.0743242 6.17652 0.222974L7.66445 3.23785C7.72271 3.3559 7.83534 3.43773 7.96562 3.45666L11.2927 3.94012C11.6208 3.98779 11.7518 4.39098 11.5144 4.6224L9.1069 6.96915C9.01263 7.06104 8.96961 7.19344 8.99186 7.3232L9.5602 10.6369C9.61624 10.9636 9.27327 11.2128 8.97982 11.0585L6.00396 9.49404C5.88743 9.43277 5.74822 9.43277 5.63169 9.49404L2.65583 11.0585C2.36238 11.2128 2.01941 10.9636 2.07545 10.6369L2.64379 7.3232C2.66605 7.19344 2.62303 7.06104 2.52875 6.96915L0.121232 4.6224C-0.116174 4.39098 0.0148298 3.98779 0.342918 3.94012L3.67003 3.45666C3.80031 3.43773 3.91294 3.3559 3.9712 3.23785L5.45913 0.222973Z" fill="white"/>
</svg>
