<svg width="24" height="24" viewBox="0 0 24 24" fill="none" xmlns="http://www.w3.org/2000/svg">
<path d="M9.55216 21.9998C9.55216 21.8518 9.54963 21.5909 9.54625 21.2418C9.54234 20.8378 9.53729 20.3159 9.53369 19.7144C5.79785 20.5265 5.00972 17.9128 5.00972 17.9128C4.39953 16.3607 3.51908 15.9475 3.51908 15.9475C2.29953 15.1134 3.6114 15.1303 3.6114 15.1303C4.95852 15.2253 5.66775 16.5153 5.66775 16.5153C6.86631 18.5689 8.81103 17.976 9.5765 17.6315C9.6982 16.7631 10.0457 16.1708 10.4293 15.8349C7.44712 15.4957 4.31224 14.3433 4.31224 9.19383C4.31224 7.72645 4.83514 6.52719 5.69461 5.58727C5.55612 5.2472 5.09533 3.88146 5.82555 2.03112C5.82555 2.03112 6.9536 1.66992 9.51858 3.40857C10.5904 3.11033 11.7386 2.96183 12.8809 2.95577C14.0216 2.96162 15.1706 3.11033 16.2433 3.40857C18.8066 1.66992 19.9321 2.03112 19.9321 2.03112C20.6648 3.88146 20.204 5.2472 20.0656 5.58727C20.9267 6.52719 21.4463 7.72645 21.4463 9.19383C21.4463 14.3558 18.3063 15.4923 15.315 15.8249C15.7967 16.2398 16.2265 17.0595 16.2265 18.3135C16.2265 19.5149 16.219 20.5607 16.214 21.2537C16.2115 21.5971 16.2097 21.8539 16.2097 22" stroke="#9FA6B2"/>
</svg>
