<svg width="185" height="86" viewBox="0 0 185 86" fill="none" xmlns="http://www.w3.org/2000/svg">
<g clip-path="url(#clip0)">
<path d="M36.0708 4L20 20.221H28.3954V79.0028H43.7491V20.221H52.1417L36.0708 4Z" fill="url(#paint0_linear)"/>
<path d="M145.145 18.2182H136.749V69.4159H121.395V18.2182H113L129.071 2L145.145 18.2182Z" fill="url(#paint1_linear)"/>
<path d="M64.7143 23.7236L51.3323 37.2284H58.3242V87.62L71.1072 88.0004V37.2284H78.0992L64.7143 23.7236Z" fill="url(#paint2_linear)"/>
<path d="M96.6421 61.0217H90.9917V87.6196H80.6584V61.0217H75.0081L85.8279 50.1055L96.6421 61.0217Z" fill="url(#paint3_linear)"/>
<path d="M10.927 38L2 47.0088H6.66319V79.6609H15.1908V47.0088H19.854L10.927 38Z" fill="url(#paint4_linear)"/>
<path d="M155.861 60.3883C138.308 55.5464 120.751 58.6276 103.198 52.2099C104.789 42.9328 106.381 33.5784 107.969 24.1602C125.522 29.002 143.079 25.9208 160.632 32.3385C159.044 41.6156 157.452 50.97 155.861 60.3883Z" fill="#005E1F"/>
<path d="M153.883 53.2211C154.732 48.1575 155.585 43.114 156.434 38.0874C154.449 37.5229 153.111 35.5673 153.444 33.5815C140.319 30.4802 127.194 31.3572 114.069 28.9346C113.736 30.9338 111.858 32.2543 109.877 31.7671C109.028 36.8273 108.176 41.8708 107.327 46.8974C109.311 47.4653 110.65 49.4208 110.317 51.4066C123.442 54.5248 136.567 53.6478 149.692 56.057C150.021 54.0611 151.899 52.7372 153.883 53.2211Z" fill="#99C57C"/>
<path d="M139.82 42.8923C139.088 47.341 134.959 50.6775 130.591 50.3819C126.226 50.0795 123.279 46.118 124.008 41.6592C124.741 37.2104 128.87 33.8739 133.238 34.1696C137.606 34.4686 140.553 38.4301 139.82 42.8923Z" fill="#005E1F"/>
<path d="M132.166 46.0812C132.076 46.6255 131.986 47.1732 131.899 47.7176C131.436 47.684 130.974 47.6537 130.511 47.6201C130.601 47.0724 130.691 46.5214 130.781 45.9737C129.822 45.7654 128.939 45.2782 128.337 44.6364C128.666 44.1458 128.996 43.6519 129.329 43.1613C129.971 43.8804 131.034 44.4314 131.793 44.4852C132.355 44.5255 132.745 44.3373 132.812 43.9409C133.018 42.6674 129.043 43.1647 129.475 40.5102C129.668 39.3241 130.637 38.558 132.009 38.427C132.096 37.9028 132.179 37.3787 132.266 36.8545C132.728 36.8881 133.191 36.9183 133.654 36.9519C133.567 37.4727 133.484 37.9936 133.398 38.5144C134.237 38.6723 135.002 39.0318 135.552 39.4821C135.229 39.9793 134.903 40.48 134.58 40.9806C133.88 40.4733 132.958 40.0533 132.352 40.0096C131.893 39.976 131.563 40.1272 131.506 40.4699C131.303 41.7098 135.269 41.2797 134.829 43.9778C134.616 45.2916 133.511 45.9938 132.166 46.0812Z" fill="#E5E5E5"/>
<path d="M138.395 69.578C120.196 69.7191 104.128 77.4842 85.5055 76.1032C84.5466 66.7387 83.5644 57.3003 82.5688 47.7981C100.765 47.657 116.836 39.8919 135.458 41.2729C136.417 50.6373 137.4 60.0757 138.395 69.578Z" fill="#005E1F"/>
<path d="M134.567 63.2212C134.028 58.1173 133.492 53.0268 132.959 47.9565C130.898 47.9565 129.083 46.4411 128.87 44.4385C115.402 45.0399 103.007 49.4752 89.7218 50.7319C89.9382 52.7445 88.4866 54.5321 86.4456 54.6026C86.9849 59.7066 87.521 64.7937 88.0537 69.864C90.1147 69.8673 91.9293 71.3861 92.1424 73.3853C105.614 72.7973 118.013 68.3654 131.291 67.0953C131.075 65.0826 132.526 63.2951 134.567 63.2212Z" fill="#99C57C"/>
<path d="M118.258 57.1191C118.748 61.6014 115.668 65.9426 111.386 66.8531C107.101 67.757 103.202 64.7497 102.71 60.254C102.22 55.7717 105.3 51.4305 109.582 50.5199C113.864 49.6194 117.762 52.6267 118.258 57.1191Z" fill="#005E1F"/>
<path d="M111.746 62.2839C111.806 62.835 111.869 63.3827 111.929 63.9337C111.476 64.0278 111.02 64.1253 110.567 64.2193C110.507 63.6649 110.444 63.1139 110.384 62.5595C109.405 62.62 108.427 62.3948 107.674 61.9412C107.861 61.3767 108.047 60.8156 108.23 60.2511C109.043 60.7652 110.211 61.0071 110.957 60.8526C111.51 60.7383 111.836 60.4494 111.789 60.0495C111.646 58.766 107.954 60.3351 107.657 57.6605C107.524 56.4643 108.253 55.463 109.539 54.9624C109.479 54.4348 109.422 53.9073 109.362 53.3764C109.815 53.2823 110.271 53.1849 110.724 53.0908C110.781 53.615 110.84 54.1392 110.897 54.6633C111.749 54.586 112.582 54.7204 113.231 55.0061C113.051 55.5739 112.875 56.1451 112.695 56.713C111.886 56.4173 110.884 56.2627 110.291 56.387C109.842 56.4811 109.562 56.7163 109.602 57.0624C109.738 58.3124 113.441 56.8104 113.74 59.5287C113.894 60.8559 113.015 61.8303 111.746 62.2839Z" fill="#E5E5E5"/>
<path d="M156.697 81.2945C140.755 72.4374 122.976 71.2781 107.4 60.8888C111.099 52.2468 114.818 43.5308 118.554 34.751C134.496 43.6081 152.276 44.7673 167.851 55.1566C164.149 63.7987 160.43 72.5146 156.697 81.2945Z" fill="#005E1F"/>
<path d="M156.437 73.859C158.438 69.1381 160.436 64.434 162.43 59.7501C160.632 58.732 159.787 56.5144 160.569 54.663C148.529 48.5443 135.568 46.2931 123.372 40.833C122.586 42.6978 120.452 43.5379 118.637 42.5937C116.636 47.3112 114.638 52.0153 112.644 56.6992C114.442 57.7206 115.287 59.9383 114.505 61.7897C126.541 67.9251 139.503 70.1764 151.702 75.623C152.488 73.7615 154.623 72.9182 156.437 73.859Z" fill="#99C57C"/>
<path d="M145.167 60.4927C143.422 64.6458 138.631 66.9104 134.456 65.5933C130.281 64.2661 128.336 59.7199 130.084 55.5568C131.829 51.4072 136.62 49.1391 140.795 50.4563C144.967 51.7801 146.912 56.3296 145.167 60.4927Z" fill="#005E1F"/>
<path d="M136.983 61.7833C136.77 62.2941 136.557 62.8014 136.344 63.3122C135.901 63.171 135.458 63.0299 135.019 62.8888C135.232 62.3747 135.448 61.864 135.661 61.3499C134.779 60.9198 134.033 60.2377 133.597 59.475C134.033 59.0751 134.466 58.6753 134.902 58.2754C135.362 59.1255 136.264 59.9118 136.99 60.1436C137.529 60.315 137.952 60.2243 138.105 59.8547C138.601 58.6652 134.622 58.2082 135.661 55.7319C136.127 54.6231 137.246 54.109 138.608 54.3072C138.814 53.8166 139.017 53.3294 139.224 52.8389C139.667 52.98 140.109 53.1211 140.549 53.2622C140.346 53.7494 140.143 54.2333 139.94 54.7205C140.719 55.0733 141.381 55.6008 141.808 56.172C141.375 56.5786 140.945 56.9885 140.512 57.3985C139.95 56.7399 139.151 56.1116 138.571 55.9268C138.132 55.7856 137.775 55.8528 137.642 56.1754C137.156 57.3346 141.112 57.8521 140.06 60.3721C139.55 61.5952 138.312 62.0118 136.983 61.7833Z" fill="#E5E5E5"/>
<path d="M91.7053 33.9276C97.1384 31.2681 99.4064 24.6674 96.7711 19.1845C94.1358 13.7016 87.595 11.4128 82.1619 14.0723C76.7288 16.7318 74.4608 23.3325 77.0961 28.8154C79.7315 34.2983 86.2722 36.5871 91.7053 33.9276Z" fill="#FFD524"/>
<path d="M90.2858 32.3053C94.8353 30.4382 97.0236 25.2026 95.1734 20.6113C93.3233 16.02 88.1352 13.8116 83.5856 15.6788C79.0361 17.5459 76.8478 22.7815 78.698 27.3728C80.5481 31.9641 85.7362 34.1725 90.2858 32.3053Z" fill="#FFB02D"/>
<path d="M95.7062 25.4865C95.017 29.7134 91.3878 32.9424 87.0028 32.976C82.0918 33.0096 78.083 29.0179 78.0464 24.0618C78.0364 22.6875 78.3327 21.3872 78.8721 20.2246C78.7855 20.7253 78.7423 21.2461 78.7456 21.7736C78.7789 26.7297 82.7876 30.7214 87.702 30.6878C91.2513 30.6609 94.3011 28.5374 95.7062 25.4865Z" fill="#F89723"/>
<path d="M87.9746 28.3024L87.988 30.1873L86.3665 30.1974L86.3532 28.3024C85.2045 28.1512 84.0924 27.6774 83.27 27.0054L84.1257 25.238C85.0114 25.994 86.3432 26.5282 87.2355 26.5215C87.8947 26.5182 88.3076 26.2662 88.3043 25.8126C88.2943 24.3476 83.7994 25.2649 83.7761 22.2106C83.7661 20.843 84.735 19.8888 86.2966 19.62L86.2832 17.8089L87.9047 17.7988L87.918 19.5965C88.9202 19.7006 89.8725 20.04 90.595 20.5003L89.7659 22.2912C88.8603 21.7805 87.7116 21.3806 87.0024 21.3874C86.4664 21.3907 86.1134 21.589 86.1168 21.9855C86.1268 23.4135 90.6216 22.5701 90.6449 25.6714C90.6516 27.1868 89.5096 28.0806 87.9746 28.3024Z" fill="#FFD524"/>
<path opacity="0.2" d="M85.5673 18.8814C85.8237 19.755 86.4063 20.5009 87.0822 21.1057C88.2609 22.1574 89.7691 22.8261 91.3307 22.9975C91.8135 23.0512 92.3096 23.0546 92.7757 22.9202C94.1841 22.5102 94.2773 20.9579 93.7013 19.8088C92.9755 18.3639 91.6204 17.1879 90.192 16.4924C89.0133 15.9178 86.656 15.313 85.7471 16.6604C85.3309 17.2786 85.3642 18.1926 85.5673 18.8814Z" fill="white"/>
<path d="M137.875 66.6883C121.161 60.4252 102.133 63.0527 85.229 57.5187C86.957 47.8485 88.6884 38.1614 90.4264 28.4609C107.141 34.7241 126.169 32.0965 143.073 37.6305C141.345 47.3008 139.614 56.9845 137.875 66.6883Z" fill="url(#paint5_linear)"/>
<path d="M136.111 59.1648C137.033 54.0038 137.952 48.8494 138.871 43.6951C136.94 43.1508 135.638 41.1885 135.994 39.1825C123.019 36.3366 109.158 36.9011 96.2628 33.7393C95.9066 35.7419 94.0321 37.0052 92.1076 36.4273C91.1853 41.5883 90.2664 46.7427 89.3474 51.8936C91.2785 52.438 92.5837 54.4002 92.2241 56.4028C105.199 59.2421 119.063 58.681 131.952 61.8461C132.315 59.8469 134.19 58.5869 136.111 59.1648Z" fill="#ACD987"/>
<path d="M122.207 48.3628C121.432 52.7343 117.21 55.8726 112.752 55.4794C108.29 55.0897 105.32 51.1651 106.099 46.7836C106.875 42.4122 111.097 39.2739 115.555 39.667C120.013 40.0568 122.987 43.9813 122.207 48.3628Z" fill="#0C8F39"/>
<path d="M114.383 51.3062C114.29 51.8371 114.193 52.3714 114.1 52.9023C113.627 52.8586 113.154 52.8149 112.681 52.7746C112.778 52.2403 112.871 51.7027 112.968 51.1685C111.992 50.9434 111.093 50.4461 110.484 49.8043C110.823 49.3305 111.163 48.8568 111.503 48.383C112.155 49.1021 113.234 49.6665 114.013 49.7371C114.589 49.7909 114.989 49.6128 115.055 49.2264C115.275 47.9832 111.213 48.3796 111.673 45.789C111.879 44.6298 112.871 43.9074 114.273 43.81C114.363 43.2992 114.453 42.7885 114.546 42.2744C115.019 42.3181 115.491 42.3618 115.964 42.4021C115.874 42.9095 115.784 43.4168 115.695 43.9276C116.55 44.1023 117.329 44.4685 117.889 44.9255C117.556 45.406 117.22 45.8898 116.887 46.3703C116.177 45.8596 115.235 45.4228 114.619 45.369C114.15 45.3253 113.813 45.4665 113.753 45.7991C113.54 47.0087 117.592 46.6795 117.123 49.3137C116.89 50.5939 115.758 51.2525 114.383 51.3062Z" fill="white"/>
<path d="M167.908 25.7597L167.528 24.624L167.148 25.7597C166.659 27.2213 165.644 28.4444 164.302 29.1836C165.644 29.9228 166.659 31.1459 167.148 32.6075L167.528 33.7432L167.908 32.6075C168.397 31.1459 169.413 29.9228 170.754 29.1836C169.413 28.4444 168.397 27.2213 167.908 25.7597Z" fill="white"/>
<path d="M88.1989 66.9843L87.8193 65.8486L87.4398 66.9843C86.9503 68.4459 85.9348 69.669 84.593 70.4082C85.9348 71.1474 86.9503 72.3705 87.4398 73.8321L87.8193 74.9678L88.1989 73.8321C88.6883 72.3705 89.7038 71.1474 91.0456 70.4082C89.7038 69.669 88.6883 68.4459 88.1989 66.9843Z" fill="white"/>
<path d="M160.106 21.6232L159.843 20.8369L159.58 21.6232C159.241 22.6379 158.538 23.4846 157.606 23.9987C158.535 24.5128 159.241 25.3595 159.58 26.3743L159.843 27.1605L160.106 26.3743C160.446 25.3595 161.149 24.5128 162.081 23.9987C161.152 23.4846 160.446 22.6379 160.106 21.6232Z" fill="white"/>
<path d="M79.9316 60.9357L79.6686 60.1494L79.4056 60.9357C79.066 61.9504 78.3634 62.7971 77.4312 63.3112C78.3601 63.8253 79.066 64.6721 79.4056 65.6868L79.6686 66.473L79.9316 65.6868C80.2712 64.6721 80.9738 63.8253 81.9061 63.3112C80.9771 62.7971 80.2712 61.9504 79.9316 60.9357Z" fill="white"/>
<path d="M164.565 62.9923L164.302 62.2061L164.039 62.9923C163.7 64.0071 162.997 64.8538 162.065 65.3679C162.994 65.882 163.7 66.7287 164.039 67.7434L164.302 68.5297L164.565 67.7434C164.905 66.7287 165.608 65.882 166.54 65.3679C165.608 64.8538 164.905 64.0037 164.565 62.9923Z" fill="white"/>
<path d="M128.965 15.4239L128.702 14.6377L128.439 15.4239C128.1 16.4387 127.397 17.2854 126.465 17.7995C127.394 18.3136 128.1 19.1603 128.439 20.1751L128.702 20.9613L128.965 20.1751C129.305 19.1603 130.007 18.3136 130.94 17.7995C130.011 17.2854 129.305 16.4387 128.965 15.4239Z" fill="white"/>
<path d="M63.7202 55.6476L63.4572 54.8613L63.1941 55.6476C62.8545 56.6623 62.152 57.509 61.2197 58.0231C62.1487 58.5372 62.8545 59.384 63.1941 60.3987L63.4572 61.1849L63.7202 60.3987C64.0598 59.384 64.7623 58.5372 65.6946 58.0231C64.7623 57.509 64.0565 56.6623 63.7202 55.6476Z" fill="white"/>
<path d="M94.2981 1.35559L94.0351 0.569336L93.772 1.35559C93.4324 2.37033 92.7299 3.21706 91.7976 3.73115C92.7265 4.24524 93.4324 5.09197 93.772 6.10671L94.0351 6.89296L94.2981 6.10671C94.6377 5.09197 95.3402 4.24524 96.2725 3.73115C95.3402 3.21706 94.6377 2.36697 94.2981 1.35559Z" fill="white"/>
<path d="M87.1358 5.17616L86.9527 4.63184L86.7695 5.17616C86.5332 5.87841 86.047 6.46643 85.4011 6.82259C86.047 7.17876 86.5332 7.76677 86.7695 8.46902L86.9527 9.01335L87.1358 8.46902C87.3722 7.76677 87.8583 7.17876 88.5042 6.82259C87.8616 6.46643 87.3722 5.87841 87.1358 5.17616Z" fill="white"/>
<path d="M122.513 19.517L122.33 18.9727L122.147 19.517C121.91 20.2192 121.424 20.8073 120.778 21.1634C121.424 21.5196 121.91 22.1076 122.147 22.8098L122.33 23.3542L122.513 22.8098C122.749 22.1076 123.235 21.5196 123.881 21.1634C123.235 20.8073 122.749 20.2192 122.513 19.517Z" fill="white"/>
<path d="M151.657 73.1897C133.913 71.4123 116.17 78.8313 98.4274 77.8098C97.6649 68.0119 96.9058 58.2006 96.1433 48.3724C113.886 50.1499 131.629 42.7309 149.372 43.7523C150.135 53.5502 150.897 63.3616 151.657 73.1897Z" fill="url(#paint6_linear)"/>
<path d="M148.057 66.3686C147.651 61.1404 147.244 55.9189 146.835 50.7007C144.831 50.6705 143.076 49.1047 142.916 47.0752C129.651 47.6498 116.383 51.7423 103.118 51.991C103.278 54.0204 101.78 55.7206 99.7754 55.6534C100.182 60.8817 100.588 66.1032 100.997 71.3213C103.002 71.3516 104.756 72.9174 104.916 74.9468C118.181 74.3689 131.449 70.273 144.714 70.0311C144.558 68.0016 146.053 66.2981 148.057 66.3686Z" fill="#ACD987"/>
<path d="M131.888 59.4844C132.238 63.9095 128.945 68.029 124.533 68.7884C120.122 69.5544 116.259 66.5203 115.91 62.0817C115.56 57.6565 118.853 53.5371 123.265 52.7777C127.68 52.0116 131.539 55.0424 131.888 59.4844Z" fill="#0C8F39"/>
<path d="M125.063 64.3334C125.106 64.871 125.149 65.412 125.189 65.9496C124.723 66.0302 124.253 66.1075 123.787 66.1881C123.744 65.6472 123.701 65.1028 123.658 64.5619C122.655 64.5921 121.663 64.3435 120.911 63.8798C121.12 63.3354 121.33 62.7878 121.54 62.2434C122.352 62.771 123.538 63.0398 124.307 62.9087C124.876 62.8113 125.219 62.5391 125.189 62.1493C125.089 60.8927 121.257 62.314 121.05 59.6898C120.957 58.5171 121.736 57.5629 123.068 57.1093C123.028 56.5918 122.985 56.0744 122.945 55.5569C123.411 55.4763 123.881 55.399 124.347 55.3184C124.387 55.8324 124.427 56.3465 124.47 56.8606C125.342 56.8102 126.188 56.9648 126.844 57.2638C126.641 57.8149 126.441 58.3659 126.238 58.917C125.422 58.6045 124.403 58.423 123.791 58.5272C123.328 58.6045 123.035 58.8263 123.062 59.1656C123.158 60.392 126.994 59.0312 127.207 61.6991C127.31 63.0028 126.378 63.9302 125.063 64.3334Z" fill="white"/>
<path d="M149.961 85.978C155.999 85.978 160.895 81.0377 160.895 74.9436C160.895 68.8495 155.999 63.9092 149.961 63.9092C143.922 63.9092 139.026 68.8495 139.026 74.9436C139.026 81.0377 143.922 85.978 149.961 85.978Z" fill="#FFD524"/>
<path d="M156.246 81.2903C159.719 77.7855 159.719 72.1031 156.246 68.5983C152.773 65.0935 147.143 65.0935 143.67 68.5983C140.197 72.1031 140.197 77.7855 143.67 81.2903C147.143 84.7951 152.773 84.7951 156.246 81.2903Z" fill="#FFB02D"/>
<path d="M158.727 76.4328C158.038 80.6597 154.409 83.8887 150.024 83.9223C145.113 83.9559 141.104 79.9642 141.067 75.0081C141.057 73.6338 141.353 72.3335 141.893 71.1709C141.806 71.6715 141.763 72.1924 141.766 72.7199C141.8 77.676 145.808 81.6677 150.723 81.6341C154.272 81.6072 157.322 79.4837 158.727 76.4328Z" fill="#F89723"/>
<path d="M150.996 79.2477L151.009 81.1327L149.388 81.1428L149.374 79.2477C148.226 79.0965 147.114 78.6227 146.291 77.9507L147.147 76.1833C148.033 76.9393 149.364 77.4736 150.257 77.4668C150.916 77.4635 151.329 77.2115 151.326 76.7579C151.316 75.2929 146.821 76.2102 146.797 73.1559C146.787 71.7884 147.756 70.8341 149.318 70.5653L149.305 68.7542L150.926 68.7441L150.939 70.5418C151.942 70.6459 152.894 70.9853 153.616 71.4456L152.787 73.2365C151.882 72.7258 150.733 72.326 150.024 72.3327C149.488 72.336 149.135 72.5343 149.138 72.9308C149.148 74.3588 153.643 73.5154 153.666 76.6168C153.673 78.1321 152.531 79.0259 150.996 79.2477Z" fill="#FFD524"/>
<path opacity="0.2" d="M148.588 69.8267C148.845 70.7003 149.427 71.4463 150.103 72.0511C151.282 73.1028 152.79 73.7714 154.352 73.9428C154.834 73.9965 155.331 73.9999 155.797 73.8655C157.205 73.4556 157.298 71.9032 156.722 70.7541C155.996 69.3092 154.641 68.1332 153.213 67.4377C152.034 66.8631 149.677 66.2583 148.768 67.6057C148.352 68.224 148.385 69.1379 148.588 69.8267Z" fill="white"/>
<path d="M162.489 57.1157C164.798 52.5375 162.991 46.9377 158.454 44.6082C153.918 42.2788 148.369 44.1018 146.061 48.6801C143.752 53.2583 145.559 58.8581 150.095 61.1876C154.632 63.517 160.181 61.694 162.489 57.1157Z" fill="#FFD524"/>
<path d="M154.786 60.4562C158.916 60.1667 162.031 56.5539 161.744 52.3867C161.457 48.2195 157.877 45.076 153.748 45.3655C149.618 45.655 146.503 49.2678 146.79 53.435C147.077 57.6022 150.657 60.7456 154.786 60.4562Z" fill="#FFB02D"/>
<path d="M158.988 58.7794C156.215 61.0608 152.136 61.0608 149.346 58.6114C146.223 55.8662 145.896 51.0882 148.613 47.9365C149.369 47.0628 150.275 46.4076 151.257 45.9775C150.924 46.2463 150.611 46.5487 150.321 46.8848C147.601 50.0365 147.931 54.8145 151.054 57.5597C153.311 59.5421 156.411 59.9184 158.988 58.7794Z" fill="#F89723"/>
<path d="M152.544 56.2046L151.512 57.4008L150.48 56.4936L151.519 55.2873C150.876 54.5447 150.433 53.6207 150.287 52.7303L151.802 52.0953C151.942 53.073 152.491 54.1583 153.057 54.6556C153.477 55.0252 153.876 55.0992 154.126 54.8102C154.928 53.8795 151.582 51.9273 153.257 49.9852C154.006 49.1149 155.148 49.0578 156.283 49.7668L157.276 48.6143L158.308 49.5215L157.322 50.6639C157.898 51.2922 158.314 52.0449 158.514 52.7438L156.999 53.409C156.71 52.5758 156.203 51.6786 155.754 51.2821C155.414 50.9831 155.081 50.9092 154.865 51.1612C154.083 52.0684 157.389 54.0676 155.687 56.04C154.852 57.0077 153.636 56.9304 152.544 56.2046Z" fill="#FFD524"/>
<path opacity="0.2" d="M156.23 48.8968C155.911 49.5956 155.864 50.392 155.957 51.1581C156.12 52.4853 156.703 53.7588 157.595 54.7466C157.872 55.0524 158.181 55.3346 158.551 55.5093C159.666 56.0436 160.585 55.1162 160.855 54.0645C161.195 52.744 160.988 51.2387 160.469 49.9921C160.039 48.964 158.887 47.2537 157.565 47.5964C156.969 47.751 156.483 48.3457 156.23 48.8968Z" fill="white"/>
<path d="M134.877 73.9186C135.159 68.7897 131.268 64.4013 126.185 64.1167C121.103 63.8321 116.754 67.7592 116.472 72.8881C116.191 78.017 120.082 82.4055 125.164 82.6901C130.247 82.9746 134.595 79.0475 134.877 73.9186Z" fill="#FFD524"/>
<path d="M132.031 77.412C134.219 73.8669 133.146 69.2022 129.633 66.9933C126.12 64.7844 121.498 65.8677 119.309 69.4129C117.12 72.9581 118.194 77.6227 121.707 79.8316C125.219 82.0405 129.842 80.9572 132.031 77.412Z" fill="#FFB02D"/>
<path d="M132.048 69.4346C133.939 72.4989 133.423 76.5814 130.663 79.0645C127.57 81.8433 122.832 81.5677 120.078 78.4462C119.316 77.5794 118.786 76.5915 118.487 75.5532C118.707 75.9195 118.966 76.2723 119.259 76.6049C122.013 79.7264 126.754 80.0019 129.844 77.2232C132.081 75.2139 132.844 72.1562 132.048 69.4346Z" fill="#F89723"/>
<path d="M128.705 75.5561L129.751 76.7422L128.729 77.6595L127.677 76.4666C126.864 77.0143 125.899 77.3403 125.01 77.3772L124.577 75.7778C125.556 75.761 126.691 75.3511 127.254 74.8471C127.67 74.4741 127.793 74.0844 127.54 73.7988C126.728 72.8747 124.384 75.9828 122.689 74.0609C121.93 73.2007 122.016 72.0515 122.855 71.0066L121.85 69.8675L122.872 68.9502L123.871 70.0825C124.563 69.5852 125.353 69.266 126.065 69.1518L126.528 70.7512C125.672 70.936 124.723 71.3291 124.277 71.729C123.941 72.0314 123.828 72.3573 124.044 72.6059C124.836 73.5064 127.22 70.4454 128.945 72.401C129.787 73.3485 129.558 74.5548 128.705 75.5561Z" fill="#FFD524"/>
<path opacity="0.2" d="M121.987 70.9426C122.632 71.3525 123.412 71.497 124.174 71.5003C125.499 71.5037 126.824 71.0837 127.91 70.3143C128.243 70.0757 128.562 69.8035 128.782 69.4541C129.448 68.4024 128.652 67.3675 127.653 66.9643C126.398 66.4569 124.893 66.4737 123.601 66.8332C122.536 67.1323 120.711 68.0697 120.878 69.4339C120.954 70.0589 121.48 70.62 121.987 70.9426Z" fill="white"/>
<path d="M76.6968 50.8772C80.6766 47.675 81.3306 41.8233 78.1575 37.807C74.9845 33.7907 69.1859 33.1307 65.2061 36.3328C61.2263 39.535 60.5723 45.3867 63.7453 49.403C66.9184 53.4193 72.717 54.0793 76.6968 50.8772Z" fill="#FFD524"/>
<path d="M70.9513 51.1651C75.0906 51.1651 78.4461 47.7788 78.4461 43.6016C78.4461 39.4244 75.0906 36.0381 70.9513 36.0381C66.8121 36.0381 63.4565 39.4244 63.4565 43.6016C63.4565 47.7788 66.8121 51.1651 70.9513 51.1651Z" fill="#FFB02D"/>
<path d="M75.4122 37.5234C78.2922 39.6638 79.3111 43.6488 77.6563 46.9854C75.8051 50.7218 71.3002 52.2338 67.5978 50.3656C66.5723 49.8481 65.7166 49.1257 65.0574 48.2723C65.397 48.531 65.7666 48.7628 66.1628 48.9611C69.8652 50.8293 74.3701 49.3172 76.2213 45.5809C77.5598 42.8794 77.1469 39.7579 75.4122 37.5234Z" fill="#F89723"/>
<path d="M74.5507 44.4608L75.9591 45.1732L75.3465 46.4097L73.9315 45.694C73.3788 46.5071 72.603 47.169 71.7872 47.5353L70.7984 46.2114C71.7007 45.8317 72.6063 45.0253 72.9426 44.3466C73.1923 43.846 73.1623 43.436 72.8227 43.2647C71.7273 42.7103 70.6918 46.4702 68.4111 45.321C67.3889 44.8069 67.0493 43.7048 67.4455 42.4179L66.0938 41.7358L66.7064 40.5027L68.0482 41.1814C68.5077 40.4624 69.1236 39.8677 69.7462 39.498L70.7618 40.8118C70.0359 41.3024 69.3001 42.0214 69.0304 42.5624C68.8273 42.9723 68.8406 43.3151 69.1369 43.4629C70.2024 44.0005 71.2945 40.2709 73.6118 41.4402C74.7472 42.0046 74.9769 43.2109 74.5507 44.4608Z" fill="#FFD524"/>
<path opacity="0.2" d="M66.6164 42.6835C67.3655 42.8212 68.1446 42.6667 68.8538 42.3844C70.0857 41.8938 71.1645 41.0068 71.887 39.8845C72.1101 39.5384 72.3032 39.1655 72.3798 38.7589C72.6128 37.5359 71.4941 36.8706 70.4187 36.8672C69.0669 36.8638 67.6718 37.4418 66.6064 38.2616C65.7274 38.937 64.3756 40.4927 65.0315 41.6956C65.3345 42.25 66.027 42.5726 66.6164 42.6835Z" fill="white"/>
<path d="M113.86 14.6415C115.504 10.9521 113.873 6.61596 110.217 4.95652C106.562 3.29708 102.265 4.94273 100.62 8.63217C98.9761 12.3216 100.607 16.6577 104.263 18.3172C107.919 19.9766 112.215 18.331 113.86 14.6415Z" fill="#FFD524"/>
<path d="M110.84 16.3581C113.422 14.3495 113.901 10.6087 111.911 8.00288C109.921 5.39707 106.214 4.91297 103.632 6.92162C101.05 8.93027 100.57 12.671 102.56 15.2768C104.551 17.8826 108.257 18.3667 110.84 16.3581Z" fill="#FFB02D"/>
<path d="M111.923 15.2518C110.218 17.5165 107.095 18.2759 104.511 16.9184C101.618 15.3997 100.492 11.8011 101.997 8.88118C102.414 8.07141 102.99 7.40276 103.662 6.88867C103.456 7.15412 103.273 7.44644 103.109 7.75892C101.605 10.6788 102.73 14.2774 105.623 15.7962C107.718 16.8916 110.158 16.6026 111.923 15.2518Z" fill="#F89723"/>
<path d="M106.518 14.4834L105.945 15.5922L104.99 15.0916L105.566 13.976C104.94 13.5258 104.43 12.9008 104.154 12.2489L105.2 11.4795C105.486 12.2019 106.105 12.931 106.628 13.2066C107.017 13.4115 107.334 13.3947 107.474 13.1259C107.92 12.2624 104.996 11.3921 105.925 9.5945C106.342 8.78809 107.204 8.53273 108.203 8.86201L108.752 7.79688L109.708 8.29752L109.162 9.35594C109.718 9.72891 110.174 10.2296 110.454 10.7268L109.415 11.5165C109.038 10.9318 108.489 10.3404 108.07 10.1187C107.753 9.95403 107.487 9.96075 107.367 10.1926C106.934 11.0326 109.831 11.9465 108.889 13.7744C108.432 14.6682 107.487 14.8362 106.518 14.4834Z" fill="#FFD524"/>
<path opacity="0.2" d="M108.004 8.19965C107.887 8.79438 107.997 9.41263 108.21 9.98048C108.58 10.965 109.256 11.8319 110.121 12.4232C110.388 12.6047 110.677 12.7626 110.994 12.8298C111.946 13.0314 112.479 12.1477 112.492 11.2943C112.508 10.219 112.079 9.1035 111.453 8.24669C110.937 7.54108 109.742 6.4457 108.793 6.95307C108.36 7.18491 108.097 7.7326 108.004 8.19965Z" fill="white"/>
<path d="M170.927 26L162 35.0088H166.663V67.6609H175.191V35.0088H179.854L170.927 26Z" fill="url(#paint7_linear)"/>
</g>
<defs>
<linearGradient id="paint0_linear" x1="36.0718" y1="38.5365" x2="36.0718" y2="-29.8815" gradientUnits="userSpaceOnUse">
<stop stop-color="white" stop-opacity="0"/>
<stop offset="1" stop-color="white"/>
</linearGradient>
<linearGradient id="paint1_linear" x1="129.072" y1="-29.8723" x2="129.072" y2="60.4361" gradientUnits="userSpaceOnUse">
<stop stop-color="white"/>
<stop offset="0.00650889" stop-color="white" stop-opacity="0.9935"/>
<stop offset="1" stop-color="white" stop-opacity="0"/>
</linearGradient>
<linearGradient id="paint2_linear" x1="64.7152" y1="-14.4966" x2="64.7152" y2="65.2094" gradientUnits="userSpaceOnUse">
<stop stop-color="white"/>
<stop offset="1" stop-color="white" stop-opacity="0"/>
</linearGradient>
<linearGradient id="paint3_linear" x1="85.8249" y1="11.0632" x2="85.8249" y2="84.4284" gradientUnits="userSpaceOnUse">
<stop stop-color="white"/>
<stop offset="1" stop-color="white" stop-opacity="0"/>
</linearGradient>
<linearGradient id="paint4_linear" x1="10.9267" y1="-4.30698" x2="10.9267" y2="64.5255" gradientUnits="userSpaceOnUse">
<stop stop-color="white"/>
<stop offset="1" stop-color="white" stop-opacity="0"/>
</linearGradient>
<linearGradient id="paint5_linear" x1="142.987" y1="71.9742" x2="88.9068" y2="27.0389" gradientUnits="userSpaceOnUse">
<stop stop-color="#0C8F39"/>
<stop offset="0.4895" stop-color="#078531"/>
<stop offset="1" stop-color="#007624"/>
</linearGradient>
<linearGradient id="paint6_linear" x1="157.93" y1="76.9952" x2="94.3761" y2="47.2632" gradientUnits="userSpaceOnUse">
<stop stop-color="#0C8F39"/>
<stop offset="0.4895" stop-color="#078531"/>
<stop offset="1" stop-color="#007624"/>
</linearGradient>
<linearGradient id="paint7_linear" x1="170.927" y1="-20.8221" x2="170.927" y2="58.5248" gradientUnits="userSpaceOnUse">
<stop stop-color="white"/>
<stop offset="1" stop-color="white" stop-opacity="0"/>
</linearGradient>
<clipPath id="clip0">
<rect width="185" height="86" fill="white"/>
</clipPath>
</defs>
</svg>
