<svg width="227" height="325" viewBox="0 0 227 325" fill="none" xmlns="http://www.w3.org/2000/svg">
<path d="M211.152 325H15.8478C7.1297 325 0 317.885 0 309.195V15.796C0 7.10636 7.1297 0 15.8478 0H211.152C219.87 0 227 7.10636 227 15.796V309.195C227 317.885 219.87 325 211.152 325Z" fill="#484F63"/>
<path d="M205.584 222.408H21.4256C14.6428 222.408 9.09241 216.876 9.09241 210.116V20.8553C9.09241 14.0947 14.6428 8.5625 21.4256 8.5625H205.584C212.366 8.5625 217.917 14.0947 217.917 20.8553V210.116C217.917 216.885 212.366 222.408 205.584 222.408Z" fill="#CCD3FF"/>
<path d="M54.9783 285.935C64.3791 276.565 64.3791 261.373 54.9783 252.003C45.5775 242.633 30.3358 242.633 20.9349 252.003C11.5341 261.373 11.5341 276.565 20.9349 285.935C30.3358 295.305 45.5775 295.305 54.9783 285.935Z" fill="#F9DF9C"/>
<path d="M37.9579 291.002C50.1666 291.002 60.0637 281.137 60.0637 268.968C60.0637 256.799 50.1666 246.935 37.9579 246.935C25.7492 246.935 15.852 256.799 15.852 268.968C15.852 281.137 25.7492 291.002 37.9579 291.002Z" fill="#DDB653"/>
<rect x="95" y="242" width="122" height="10" rx="5" fill="#9298AC"/>
<rect x="95" y="264" width="122" height="10" rx="5" fill="#9298AC"/>
<rect x="76" y="286" width="141" height="10" rx="5" fill="#9298AC"/>
<path d="M45.52 272.432C45.52 273.872 45.032 275.04 44.056 275.936C43.096 276.816 41.824 277.368 40.24 277.592V281.144H37.048V277.568C35.912 277.392 34.816 277.08 33.76 276.632C32.72 276.184 31.8 275.624 31 274.952L32.704 271.52C33.552 272.272 34.552 272.888 35.704 273.368C36.872 273.848 37.904 274.088 38.8 274.088C39.456 274.088 39.968 273.968 40.336 273.728C40.72 273.488 40.912 273.136 40.912 272.672C40.912 272.288 40.768 271.968 40.48 271.712C40.208 271.456 39.856 271.256 39.424 271.112C39.008 270.952 38.416 270.768 37.648 270.56C36.496 270.24 35.544 269.92 34.792 269.6C34.04 269.264 33.392 268.768 32.848 268.112C32.32 267.44 32.056 266.552 32.056 265.448C32.056 264.104 32.496 262.992 33.376 262.112C34.272 261.216 35.496 260.648 37.048 260.408V257H40.24V260.36C41.2 260.472 42.136 260.688 43.048 261.008C43.96 261.312 44.776 261.696 45.496 262.16L43.84 265.664C42.944 265.136 41.984 264.704 40.96 264.368C39.952 264.032 39.104 263.864 38.416 263.864C37.872 263.864 37.44 263.968 37.12 264.176C36.816 264.368 36.664 264.656 36.664 265.04C36.664 265.408 36.8 265.72 37.072 265.976C37.344 266.216 37.68 266.416 38.08 266.576C38.48 266.72 39.072 266.912 39.856 267.152C41.024 267.488 41.984 267.824 42.736 268.16C43.504 268.496 44.16 269.016 44.704 269.72C45.248 270.408 45.52 271.312 45.52 272.432Z" fill="#F9DF9C"/>
<path d="M86.4905 109.589C92.555 109.589 97.4858 104.657 97.4858 98.593C97.4858 92.5286 92.555 87.5967 86.4905 87.5967C80.4261 87.5967 75.4942 92.5286 75.4942 98.593C75.4942 104.657 80.4261 109.589 86.4905 109.589Z" fill="#8082F0"/>
<path d="M155.214 71.1035H72.7446C65.1691 71.1035 59 77.2726 59 84.8491V145.326C59 152.903 65.1691 159.072 72.7446 159.072H155.214C162.791 159.072 168.96 152.903 168.96 145.326V84.8491C168.96 77.2726 162.791 71.1035 155.214 71.1035ZM72.7446 82.0998H155.214C156.732 82.0998 157.964 83.331 157.964 84.8491V123.879L140.596 103.613C138.754 101.453 136.087 100.298 133.223 100.233C130.375 100.249 127.703 101.513 125.878 103.702L105.458 128.211L98.8053 121.575C95.0453 117.815 88.9255 117.815 85.1705 121.575L69.9963 136.744V84.8491C69.9963 83.331 71.2275 82.0998 72.7446 82.0998Z" fill="#8082F0"/>
<path opacity="0.502" d="M218 21.4189V122.615C218 129.465 212.411 135 205.531 135H198.343C196.502 128.748 195.385 122.103 191.825 116.705C186.218 108.232 176.278 104.764 166.492 101.023C162.829 99.6223 159.2 98.1703 155.812 96.4108C144.392 90.4661 135.363 80.1142 131.064 68.054C126.782 56.0108 127.091 42.6524 122.276 30.7972C121.399 28.6619 120.281 26.5437 118.956 24.5621C114.588 18.1049 107.915 13.1681 100.314 13.6806C97.2697 13.8856 94.3977 15.0984 92.0243 16.9433C90.4421 18.1562 89.0663 19.6765 88 21.3506C88.0344 14.5176 93.6238 9 100.486 9H205.531C212.428 9.01708 218 14.5689 218 21.4189Z" fill="url(#paint0_linear)"/>
<defs>
<linearGradient id="paint0_linear" x1="209.507" y1="7.34198" x2="117.468" y2="114.095" gradientUnits="userSpaceOnUse">
<stop stop-color="#FF91E2"/>
<stop offset="0.2268" stop-color="#FEA1E7" stop-opacity="0.7732"/>
<stop offset="0.6664" stop-color="#FDCAF4" stop-opacity="0.3336"/>
<stop offset="1" stop-color="#FCEDFF" stop-opacity="0"/>
</linearGradient>
</defs>
</svg>
