<svg width="10" height="11" viewBox="0 0 10 11" fill="none" xmlns="http://www.w3.org/2000/svg">
<path d="M5.49995 4.4422H4.49995V3.4422H5.49995V4.4422ZM5.49995 8.4422H4.49995V5.4422H5.49995V8.4422ZM4.99995 0.9422C4.34334 0.9422 3.69316 1.07153 3.08654 1.3228C2.47991 1.57408 1.92871 1.94237 1.46442 2.40667C0.526738 3.34435 -4.57764e-05 4.61612 -4.57764e-05 5.9422C-4.57764e-05 7.26828 0.526738 8.54005 1.46442 9.47773C1.92871 9.94203 2.47991 10.3103 3.08654 10.5616C3.69316 10.8129 4.34334 10.9422 4.99995 10.9422C6.32604 10.9422 7.59781 10.4154 8.53549 9.47773C9.47317 8.54005 9.99995 7.26828 9.99995 5.9422C9.99995 5.28559 9.87063 4.63541 9.61935 4.02878C9.36808 3.42215 8.99978 2.87096 8.53549 2.40667C8.0712 1.94237 7.52 1.57408 6.91337 1.3228C6.30674 1.07153 5.65656 0.9422 4.99995 0.9422Z" fill="#C9CACD"/>
</svg>
